{"glyphs":{"0":{"ha":733,"x_min":40,"x_max":693,"o":"m 513 224 q 484 372 513 276 q 408 566 456 467 q 347 661 378 629 q 286 693 316 693 q 239 667 257 693 q 221 599 221 642 q 249 452 221 548 q 323 258 277 357 q 385 161 354 194 q 447 129 416 129 q 494 155 476 129 q 513 224 513 181 m 367 842 q 602 722 510 842 q 693 411 693 603 q 602 100 693 219 q 367 -20 511 -20 q 132 100 224 -20 q 40 411 40 219 q 131 722 40 603 q 367 842 222 842 z "},"1":{"ha":733,"x_min":176,"x_max":549,"o":"m 449 823 l 488 823 q 486 799 486 811 q 485 766 485 787 l 485 743 l 485 83 l 549 83 l 549 0 l 196 0 l 196 83 l 260 83 l 260 624 l 176 589 l 176 677 q 358 770 274 717 q 449 823 442 823 z "},"2":{"ha":733,"x_min":52,"x_max":682,"o":"m 357 183 l 490 183 q 559 200 538 183 q 589 257 581 216 l 667 257 l 644 -29 l 571 -29 l 566 0 l 115 0 l 96 118 q 346 334 256 218 q 436 554 436 450 q 394 681 436 628 q 298 733 351 733 q 252 714 269 733 q 235 664 235 696 q 271 593 235 627 q 367 542 307 559 l 250 329 q 105 407 158 347 q 52 551 52 467 q 153 755 52 667 q 390 843 254 843 q 599 776 516 843 q 682 607 682 709 q 607 420 682 519 q 357 183 531 321 z "},"3":{"ha":733,"x_min":43,"x_max":664,"o":"m 43 100 l 211 267 q 306 156 262 191 q 395 122 349 122 q 458 146 433 122 q 484 207 484 170 q 417 328 484 271 q 277 385 351 385 q 250 382 264 385 q 214 375 235 380 l 174 431 l 392 650 l 288 650 q 208 637 240 650 q 147 593 176 624 l 74 621 l 182 878 l 250 852 l 241 823 l 591 823 l 631 726 l 458 551 q 608 474 551 536 q 664 325 664 412 q 561 82 664 184 q 310 -20 457 -20 q 171 10 237 -20 q 43 100 105 40 z "},"4":{"ha":733,"x_min":61,"x_max":679,"o":"m 382 571 l 176 294 l 374 294 l 382 571 m 461 823 l 595 823 q 592 799 593 811 q 591 766 591 787 l 591 743 l 591 294 l 679 302 l 653 182 l 591 182 l 591 83 l 656 83 l 656 0 l 296 0 l 296 83 l 371 83 l 371 182 l 61 182 l 61 283 l 461 823 z "},"5":{"ha":733,"x_min":66,"x_max":647,"o":"m 257 543 q 317 564 286 557 q 382 571 348 571 q 574 500 501 571 q 647 313 647 429 q 552 78 647 176 q 321 -20 457 -20 q 185 11 250 -20 q 66 102 121 41 l 225 281 q 334 192 286 219 q 431 164 383 164 q 489 186 466 164 q 511 241 511 208 q 453 345 511 300 q 319 390 395 390 q 258 382 286 390 q 203 357 230 374 l 103 393 l 205 823 l 522 823 l 532 859 l 610 859 l 566 643 q 528 647 549 644 q 503 650 507 650 l 283 650 l 257 543 z "},"6":{"ha":733,"x_min":43,"x_max":690,"o":"m 340 427 q 302 410 318 427 q 286 370 286 393 q 306 282 286 334 q 357 184 325 231 q 408 131 381 151 q 458 111 435 111 q 498 129 481 111 q 514 174 514 146 q 491 267 514 212 q 432 368 469 321 q 386 412 409 397 q 340 427 363 427 m 642 768 l 475 612 q 408 680 441 658 q 343 703 376 703 q 276 666 299 703 q 253 558 253 629 q 254 518 253 532 q 256 492 254 505 q 343 541 298 525 q 436 557 387 557 q 619 481 547 557 q 690 288 690 405 q 596 72 690 163 q 371 -20 502 -20 q 135 91 228 -20 q 43 372 43 201 q 162 706 43 570 q 450 842 281 842 q 561 824 514 842 q 642 768 607 806 z "},"7":{"ha":733,"x_min":107,"x_max":652,"o":"m 164 878 l 244 868 l 245 823 l 611 823 l 652 737 q 515 390 560 571 q 469 0 471 209 l 215 0 l 215 40 q 281 334 215 184 q 484 650 347 483 l 301 650 q 225 636 247 650 q 191 583 204 623 l 107 600 l 164 878 z "},"8":{"ha":733,"x_min":71,"x_max":663,"o":"m 293 382 q 258 350 271 370 q 245 307 245 330 q 314 186 245 247 q 449 126 383 126 q 502 145 481 126 q 522 193 522 164 q 476 265 522 226 q 293 382 431 304 m 543 465 q 633 380 604 429 q 663 268 663 332 q 570 65 663 149 q 345 -20 477 -20 q 145 42 219 -20 q 71 208 71 104 q 105 331 71 275 q 207 432 140 387 q 127 507 153 467 q 102 597 102 547 q 185 769 102 697 q 385 842 269 842 q 569 784 496 842 q 642 640 642 726 q 620 553 642 592 q 543 465 597 513 m 456 518 q 477 551 470 534 q 484 587 484 568 q 430 681 484 631 q 329 730 376 730 q 290 714 304 730 q 275 671 275 698 q 309 607 275 637 q 456 518 342 576 z "},"9":{"ha":733,"x_min":43,"x_max":690,"o":"m 92 54 l 257 210 q 323 142 290 165 q 390 119 356 119 q 458 156 435 119 q 481 264 481 193 q 480 306 481 292 q 478 332 479 320 q 391 283 437 300 q 296 267 345 267 q 114 342 185 267 q 43 536 43 418 q 136 751 43 661 q 361 842 230 842 q 597 731 503 842 q 690 450 690 621 q 571 116 690 252 q 283 -20 452 -20 q 173 -2 220 -20 q 92 54 126 16 m 273 713 q 235 695 251 713 q 220 652 220 678 q 242 556 220 611 q 301 454 265 500 q 346 411 324 425 q 392 397 368 397 q 430 414 415 397 q 446 457 446 431 q 426 541 446 490 q 375 639 407 592 q 324 693 352 673 q 273 713 296 713 z "},"\u0000":{"ha":1389,"x_min":0,"x_max":0,"o":""},"\r":{"ha":367,"x_min":0,"x_max":0,"o":""}," ":{"ha":367,"x_min":0,"x_max":0,"o":""},"!":{"ha":489,"x_min":98,"x_max":390,"o":"m 244 186 q 317 156 287 186 q 347 83 347 126 q 317 11 347 41 q 244 -20 286 -20 q 173 11 203 -20 q 142 83 142 42 q 172 155 142 125 q 244 186 203 186 m 301 292 l 187 292 l 187 298 q 143 619 187 454 q 98 810 98 783 q 138 922 98 880 q 244 964 178 964 q 351 922 311 964 q 390 810 390 880 q 346 619 390 785 q 301 297 301 454 l 301 292 z "},"\"":{"ha":486,"x_min":50,"x_max":435,"o":"m 375 574 l 345 574 l 288 888 q 285 903 286 898 q 285 913 285 908 q 305 971 285 949 q 359 993 325 993 q 414 971 394 993 q 435 914 435 950 q 434 898 435 903 q 433 887 434 892 l 375 574 m 140 574 l 111 574 l 53 887 q 51 903 51 898 q 50 913 50 908 q 70 971 50 949 q 125 993 90 993 q 181 971 160 993 q 201 914 201 950 q 201 903 201 909 q 199 888 200 897 l 140 574 z "},"#":{"ha":1068,"x_min":16,"x_max":1053,"o":"m 478 572 l 421 412 l 593 412 l 650 572 l 478 572 m 464 994 l 632 994 l 538 728 l 701 728 l 796 994 l 964 994 l 869 728 l 1053 728 l 994 572 l 814 572 l 758 414 l 946 414 l 889 258 l 703 258 l 607 -8 l 439 -8 l 534 258 l 371 258 l 275 -8 l 107 -8 l 203 258 l 16 258 l 74 414 l 258 414 l 314 572 l 121 572 l 179 728 l 370 728 l 464 994 z "},"$":{"ha":733,"x_min":31,"x_max":664,"o":"m 288 920 l 443 920 l 443 821 q 561 788 507 812 q 664 722 616 764 l 555 562 q 429 677 479 642 q 340 713 378 713 q 298 698 314 713 q 282 660 282 684 q 307 606 282 632 q 404 541 332 581 q 610 392 563 450 q 657 258 657 335 q 603 110 657 172 q 443 12 549 47 l 443 -103 l 288 -103 l 288 3 q 152 43 218 9 q 31 134 85 77 l 146 302 q 292 172 224 217 q 407 126 359 126 q 453 141 436 126 q 471 182 471 157 q 444 235 471 208 q 336 311 418 261 l 319 322 q 102 590 102 455 q 152 729 102 669 q 288 812 202 789 l 288 920 z "},"%":{"ha":1048,"x_min":41,"x_max":1008,"o":"m 762 374 q 730 361 742 374 q 718 325 718 348 q 735 246 718 296 q 779 146 751 196 q 817 93 799 110 q 854 77 835 77 q 884 91 873 77 q 895 131 895 106 q 882 195 895 155 q 844 283 869 235 q 802 350 823 327 q 762 374 781 374 m 807 468 q 952 401 896 468 q 1008 225 1008 334 q 952 48 1008 117 q 807 -20 896 -20 q 662 48 718 -20 q 606 225 606 117 q 662 400 606 333 q 807 468 719 468 m 199 747 q 166 734 178 747 q 154 699 154 722 q 171 620 154 670 q 215 519 188 569 q 253 467 235 483 q 289 450 270 450 q 318 465 307 450 q 329 504 329 479 q 316 568 329 528 q 279 657 303 608 q 237 724 258 701 q 199 747 217 747 m 697 842 l 831 842 l 353 -20 l 220 -20 l 697 842 m 243 842 q 388 774 332 842 q 444 599 444 707 q 388 422 444 490 q 243 354 332 354 q 98 422 154 354 q 41 599 41 490 q 98 774 41 707 q 243 842 155 842 z "},"&":{"ha":1061,"x_min":24,"x_max":1059,"o":"m 318 475 q 279 420 292 448 q 267 358 267 392 q 322 213 267 274 q 456 153 377 153 q 499 158 479 153 q 539 175 519 163 q 429 306 483 233 q 318 475 375 380 m 507 597 q 582 477 533 547 q 694 330 631 407 q 718 381 709 353 q 726 440 726 410 q 712 488 726 467 q 668 524 697 509 l 668 612 l 953 612 l 953 513 l 854 513 q 831 376 851 444 q 775 241 812 309 q 863 167 821 191 q 949 143 905 143 q 985 149 970 143 q 1013 170 1000 155 l 1059 125 q 954 17 1010 54 q 839 -20 899 -20 q 739 6 791 -20 q 636 82 686 33 q 502 7 575 33 q 353 -20 428 -20 q 116 62 209 -20 q 24 268 24 144 q 80 435 24 359 q 257 581 137 511 q 224 656 235 621 q 214 728 214 692 q 295 899 214 833 q 509 964 376 964 q 684 922 620 964 q 749 808 749 880 q 694 692 749 740 q 507 597 640 644 m 457 676 q 523 737 502 706 q 545 803 545 768 q 529 860 545 840 q 482 879 513 879 q 434 857 452 879 q 415 800 415 835 q 423 753 415 779 q 457 676 431 728 z "},"'":{"ha":252,"x_min":50,"x_max":201,"o":"m 140 574 l 111 574 l 53 887 q 51 903 51 898 q 50 913 50 908 q 71 971 50 949 q 126 993 92 993 q 181 971 161 993 q 201 914 201 950 q 201 903 201 909 q 199 888 200 897 l 140 574 z "},"(":{"ha":463,"x_min":64,"x_max":427,"o":"m 336 964 l 427 901 q 326 657 359 785 q 293 387 293 530 q 326 118 293 245 q 427 -126 359 -9 l 336 -191 q 132 76 200 -69 q 64 387 64 220 q 132 699 64 554 q 336 964 201 843 z "},")":{"ha":463,"x_min":37,"x_max":399,"o":"m 126 964 q 330 698 262 843 q 399 386 399 553 q 330 75 399 220 q 126 -191 262 -69 l 37 -126 q 138 118 105 -9 q 171 386 171 244 q 138 654 171 528 q 37 900 105 781 l 126 964 z "},"*":{"ha":694,"x_min":45,"x_max":650,"o":"m 261 946 l 433 946 l 380 700 l 599 823 l 650 663 l 401 636 l 586 467 l 450 367 l 347 597 l 244 367 l 109 467 l 293 636 l 45 663 l 96 823 l 314 700 l 261 946 z "},"+":{"ha":1157,"x_min":172,"x_max":985,"o":"m 498 828 l 660 828 l 660 493 l 985 493 l 985 336 l 660 336 l 660 0 l 498 0 l 498 336 l 172 336 l 172 493 l 498 493 l 498 828 z "},",":{"ha":367,"x_min":90,"x_max":290,"o":"m 142 -119 l 118 -66 q 156 -40 140 -55 q 178 -10 171 -26 q 115 19 140 -7 q 90 83 90 45 q 118 153 90 125 q 191 180 146 180 q 263 148 235 180 q 290 60 290 115 q 251 -48 290 0 q 142 -119 211 -96 z "},"-":{"ha":437,"x_min":39,"x_max":399,"o":"m 39 443 l 399 443 l 399 252 l 39 252 l 39 443 z "},".":{"ha":367,"x_min":81,"x_max":286,"o":"m 183 186 q 256 156 226 186 q 286 83 286 126 q 256 11 286 41 q 183 -20 225 -20 q 112 11 142 -20 q 81 83 81 42 q 111 155 81 125 q 183 186 142 186 z "},"/":{"ha":482,"x_min":-33,"x_max":481,"o":"m 345 964 l 481 964 l 103 -129 l -33 -129 l 345 964 z "},":":{"ha":367,"x_min":81,"x_max":286,"o":"m 183 186 q 256 156 226 186 q 286 83 286 126 q 256 11 286 41 q 183 -20 225 -20 q 112 11 142 -20 q 81 83 81 42 q 111 155 81 125 q 183 186 142 186 m 183 553 q 256 523 226 553 q 286 450 286 493 q 256 377 286 408 q 183 347 225 347 q 112 378 142 347 q 81 450 81 410 q 111 522 81 492 q 183 553 142 553 z "},";":{"ha":367,"x_min":81,"x_max":290,"o":"m 142 -119 l 118 -66 q 156 -40 140 -55 q 178 -10 171 -26 q 115 19 140 -7 q 90 83 90 45 q 118 153 90 125 q 191 180 146 180 q 263 148 235 180 q 290 60 290 115 q 251 -48 290 0 q 142 -119 211 -96 m 183 553 q 256 523 226 553 q 286 450 286 493 q 256 377 286 408 q 183 347 225 347 q 112 378 142 347 q 81 450 81 410 q 111 522 81 492 q 183 553 142 553 z "},"<":{"ha":1157,"x_min":179,"x_max":978,"o":"m 978 823 l 978 652 l 399 414 l 978 178 l 978 5 l 179 335 l 179 493 l 978 823 z "},"=":{"ha":1157,"x_min":172,"x_max":985,"o":"m 172 340 l 985 340 l 985 184 l 172 184 l 172 340 m 172 644 l 985 644 l 985 488 l 172 488 l 172 644 z "},">":{"ha":1157,"x_min":179,"x_max":978,"o":"m 179 823 l 978 493 l 978 335 l 179 5 l 179 178 l 758 414 l 179 652 l 179 823 z "},"?":{"ha":668,"x_min":43,"x_max":644,"o":"m 309 186 q 381 156 351 186 q 411 83 411 126 q 380 11 411 41 q 309 -20 350 -20 q 236 11 267 -20 q 205 83 205 42 q 236 155 205 125 q 309 186 267 186 m 378 293 l 227 293 l 226 298 q 224 357 224 340 q 241 457 224 408 q 297 559 259 507 q 321 592 305 571 q 385 734 385 680 q 359 820 385 784 q 300 856 334 856 q 254 834 271 856 q 237 774 237 812 q 247 708 237 743 q 275 636 256 673 l 78 546 q 52 622 60 585 q 43 697 43 659 q 133 889 43 814 q 363 965 222 965 q 565 900 486 965 q 644 736 644 835 q 512 511 644 615 q 473 481 486 491 q 397 394 417 433 q 378 298 378 355 l 378 293 z "},"@":{"ha":1369,"x_min":87,"x_max":1283,"o":"m 794 212 q 706 115 753 148 q 606 82 659 82 q 442 143 500 82 q 385 317 385 204 q 419 468 385 395 q 518 602 453 541 q 620 666 564 644 q 733 689 675 689 q 835 659 798 689 q 880 570 871 629 l 913 676 l 1054 676 l 936 253 q 928 217 930 230 q 926 193 926 204 q 939 144 926 163 q 974 126 952 126 q 1031 145 994 126 q 1100 192 1068 163 q 1200 335 1166 251 q 1235 521 1235 420 q 1212 670 1235 603 q 1143 786 1189 736 q 984 899 1076 860 q 781 937 891 937 q 601 910 686 937 q 443 831 515 884 q 270 625 330 749 q 210 351 210 501 q 349 -9 210 123 q 726 -142 488 -142 q 940 -108 837 -142 q 1154 -1 1043 -75 l 1182 -40 q 964 -156 1080 -117 q 726 -195 849 -195 q 260 -42 433 -195 q 87 366 87 110 q 147 624 87 503 q 318 836 206 745 q 523 951 411 912 q 761 990 635 990 q 1140 862 998 990 q 1283 519 1283 733 q 1243 315 1283 408 q 1126 153 1203 221 q 1040 98 1086 117 q 945 79 993 79 q 839 115 878 79 q 794 212 799 151 m 765 639 q 690 609 724 639 q 624 514 656 579 q 564 366 585 438 q 543 239 543 294 q 565 162 543 191 q 624 134 587 134 q 702 175 664 134 q 775 297 740 216 q 821 432 804 364 q 838 545 838 499 q 819 614 838 590 q 765 639 800 639 z "},"A":{"ha":951,"x_min":-1,"x_max":943,"o":"m 399 707 l 278 357 l 515 357 l 399 707 m 349 946 l 602 946 l 893 106 l 943 106 l 943 0 l 517 0 l 517 106 l 597 106 l 557 232 l 235 232 l 192 106 l 273 106 l 273 0 l -1 0 l -1 106 l 60 106 l 349 946 z "},"B":{"ha":951,"x_min":74,"x_max":908,"o":"m 425 501 l 425 214 q 445 137 425 161 q 505 113 464 113 q 596 165 564 113 q 629 313 629 218 q 587 453 629 404 q 464 501 544 501 l 425 501 m 425 616 l 465 616 q 553 645 522 616 q 585 724 585 673 q 553 803 585 776 q 461 829 522 829 l 425 829 l 425 616 m 74 0 l 74 106 l 142 106 l 142 839 l 74 839 l 74 946 l 545 946 q 773 896 696 946 q 850 747 850 846 q 799 625 850 671 q 653 567 749 579 q 840 481 771 553 q 908 298 908 409 q 817 81 908 161 q 567 0 725 0 l 74 0 z "},"C":{"ha":875,"x_min":41,"x_max":879,"o":"m 739 868 l 783 904 l 842 823 l 547 585 l 490 653 q 515 687 507 668 q 524 729 524 707 q 498 799 524 770 q 435 828 473 828 q 340 769 375 828 q 304 611 304 711 q 387 316 304 435 q 591 196 469 196 q 707 222 654 196 q 807 302 760 248 l 879 237 q 695 44 796 107 q 468 -20 593 -20 q 161 109 281 -20 q 41 437 41 237 q 73 625 41 537 q 167 786 104 713 q 328 918 238 871 q 514 964 418 964 q 641 940 584 964 q 739 868 698 916 z "},"D":{"ha":1007,"x_min":74,"x_max":964,"o":"m 431 819 l 431 125 l 460 125 q 604 218 553 125 q 656 484 656 312 q 604 735 656 652 q 450 819 553 819 l 431 819 m 74 946 l 456 946 q 829 823 695 946 q 964 484 964 700 q 922 265 964 359 q 794 100 881 171 q 648 23 729 46 q 429 0 567 0 l 74 0 l 74 106 l 142 106 l 142 839 l 74 839 l 74 946 z "},"E":{"ha":895,"x_min":74,"x_max":772,"o":"m 772 946 l 772 749 l 676 749 l 675 787 q 607 819 652 809 q 489 829 562 829 l 431 829 l 431 623 l 676 623 l 676 692 l 772 692 l 772 437 l 676 437 l 676 497 l 431 497 l 431 119 l 489 119 q 598 136 552 119 q 676 186 644 153 l 676 248 l 772 248 l 772 0 l 74 0 l 74 106 l 142 106 l 142 839 l 74 839 l 74 946 l 772 946 z "},"F":{"ha":836,"x_min":74,"x_max":772,"o":"m 74 946 l 772 946 l 772 749 l 676 749 l 675 787 q 603 819 644 808 q 510 829 562 829 l 431 829 l 431 623 l 676 623 l 676 692 l 772 692 l 772 437 l 676 437 l 676 497 l 431 497 l 431 106 l 528 106 l 528 0 l 74 0 l 74 106 l 142 106 l 142 839 l 74 839 l 74 946 z "},"G":{"ha":1003,"x_min":41,"x_max":949,"o":"m 653 469 l 492 469 l 492 571 l 810 571 q 862 575 837 571 q 911 589 887 580 l 949 525 q 922 484 930 505 q 913 439 913 463 l 913 0 l 836 0 l 774 100 q 625 11 705 41 q 457 -20 545 -20 q 155 102 269 -20 q 41 427 41 224 q 75 627 41 534 q 175 793 109 720 q 345 919 247 874 q 549 964 443 964 q 677 943 616 964 q 793 880 739 922 l 847 914 l 904 828 l 612 636 l 558 711 q 573 734 568 722 q 578 760 578 747 q 552 817 578 793 q 489 840 527 840 q 365 768 412 840 q 318 574 318 695 q 398 278 318 397 q 595 158 477 158 q 627 160 614 159 q 653 165 641 161 l 653 469 z "},"H":{"ha":1105,"x_min":74,"x_max":1032,"o":"m 74 946 l 498 946 l 498 839 l 431 839 l 431 621 l 675 621 l 675 839 l 607 839 l 607 946 l 1032 946 l 1032 839 l 964 839 l 964 106 l 1032 106 l 1032 0 l 607 0 l 607 106 l 675 106 l 675 494 l 431 494 l 431 106 l 498 106 l 498 0 l 74 0 l 74 106 l 142 106 l 142 839 l 74 839 l 74 946 z "},"I":{"ha":572,"x_min":74,"x_max":498,"o":"m 74 946 l 498 946 l 498 839 l 431 839 l 431 106 l 498 106 l 498 0 l 74 0 l 74 106 l 142 106 l 142 839 l 74 839 l 74 946 z "},"J":{"ha":562,"x_min":21,"x_max":514,"o":"m 90 946 l 514 946 l 514 839 l 447 839 l 447 314 q 433 172 447 225 q 385 78 418 119 q 291 6 347 33 q 174 -20 234 -20 q 90 -14 125 -20 q 33 2 55 -9 l 21 143 q 42 138 32 140 q 60 136 52 136 q 134 165 112 136 q 157 264 157 194 l 157 839 l 90 839 l 90 946 z "},"K":{"ha":1022,"x_min":74,"x_max":1003,"o":"m 74 946 l 492 946 l 492 839 l 425 839 l 425 571 l 689 839 l 624 839 l 624 946 l 926 946 l 926 839 l 867 839 l 672 646 l 945 106 l 1003 106 l 1003 0 l 668 0 l 656 28 l 644 57 l 471 452 l 425 410 l 425 106 l 492 106 l 492 0 l 74 0 l 74 106 l 142 106 l 142 839 l 74 839 l 74 946 z "},"L":{"ha":772,"x_min":74,"x_max":757,"o":"m 74 946 l 538 946 l 538 839 l 431 839 l 431 115 l 484 115 q 615 149 575 115 q 667 265 656 182 l 757 265 l 730 -41 l 636 -41 l 635 0 l 74 0 l 74 106 l 142 106 l 142 839 l 74 839 l 74 946 z "},"M":{"ha":1193,"x_min":46,"x_max":1149,"o":"m 110 946 l 427 946 q 453 866 442 899 q 471 817 465 833 l 600 484 l 757 838 q 778 895 770 868 q 791 945 787 921 l 1103 946 l 1103 839 l 1023 839 l 1088 106 l 1149 106 l 1149 0 l 730 0 l 730 106 l 811 106 l 777 643 q 654 307 702 471 q 590 0 607 142 l 450 0 q 391 312 433 151 q 282 643 349 472 l 228 106 l 313 106 l 313 0 l 46 0 l 46 106 l 102 106 l 178 839 l 110 839 l 110 946 z "},"N":{"ha":997,"x_min":74,"x_max":922,"o":"m 74 946 l 389 946 l 730 449 l 730 839 l 663 839 l 663 946 l 922 946 l 922 839 l 856 839 l 856 0 l 688 0 q 658 59 675 28 q 618 123 641 90 l 267 637 l 267 106 l 347 106 l 347 0 l 74 0 l 74 106 l 142 106 l 142 839 l 74 839 l 74 946 z "},"O":{"ha":1054,"x_min":41,"x_max":1013,"o":"m 473 842 q 369 781 405 842 q 334 603 334 720 q 354 430 334 519 q 411 258 374 340 q 489 142 446 181 q 582 103 532 103 q 686 164 650 103 q 721 343 721 225 q 701 516 721 427 q 644 688 681 606 q 567 803 610 764 q 473 842 524 842 m 528 964 q 875 825 737 964 q 1013 472 1013 686 q 875 119 1013 258 q 528 -20 737 -20 q 179 119 317 -20 q 41 472 41 258 q 179 825 41 686 q 528 964 317 964 z "},"P":{"ha":971,"x_min":74,"x_max":939,"o":"m 431 833 l 431 472 q 450 392 431 416 q 514 368 470 368 q 604 420 573 368 q 635 572 635 473 q 583 764 635 694 q 443 833 532 833 l 431 833 m 74 946 l 482 946 q 818 855 697 946 q 939 604 939 764 q 834 358 939 454 q 567 262 730 262 q 495 269 528 262 q 431 289 461 275 l 431 106 l 518 106 l 518 0 l 74 0 l 74 106 l 142 106 l 142 839 l 74 839 l 74 946 z "},"Q":{"ha":1054,"x_min":41,"x_max":1013,"o":"m 590 -16 q 793 -72 660 -16 q 1006 -131 926 -128 l 806 -311 q 736 -294 776 -310 q 643 -245 696 -279 q 488 -162 538 -181 q 395 -143 439 -143 q 324 -152 359 -143 q 260 -178 289 -161 l 195 -68 q 278 -57 228 -68 q 441 -11 328 -46 q 150 152 258 21 q 41 472 41 283 q 179 825 41 686 q 528 964 317 964 q 875 825 737 964 q 1013 472 1013 686 q 897 144 1013 277 q 590 -16 782 11 m 473 842 q 369 781 405 842 q 334 603 334 720 q 354 430 334 519 q 411 258 374 340 q 489 142 446 181 q 582 103 532 103 q 686 164 650 103 q 721 343 721 225 q 701 516 721 427 q 644 688 681 606 q 567 803 610 764 q 473 842 524 842 z "},"R":{"ha":990,"x_min":74,"x_max":942,"o":"m 425 829 l 425 428 l 465 428 q 593 484 544 428 q 643 629 643 539 q 590 775 643 720 q 449 829 538 829 l 425 829 m 74 946 l 497 946 q 805 863 691 946 q 920 639 920 779 q 868 478 920 549 q 725 371 817 407 q 754 341 741 358 q 781 297 767 323 l 884 106 l 942 106 l 942 0 l 610 0 q 597 57 605 31 q 581 106 590 84 l 484 318 l 425 318 l 425 106 l 492 106 l 492 0 l 74 0 l 74 106 l 142 106 l 142 839 l 74 839 l 74 946 z "},"S":{"ha":868,"x_min":8,"x_max":815,"o":"m 700 896 l 732 940 l 812 890 l 663 654 q 491 783 562 741 q 379 825 421 825 q 324 808 346 825 q 302 766 302 791 q 337 706 302 733 q 461 646 372 680 q 509 628 477 640 q 741 511 688 562 q 796 431 777 475 q 815 336 815 387 q 700 85 815 190 q 421 -20 585 -20 q 207 21 311 -20 q 8 139 102 61 l 170 372 q 371 197 281 254 q 532 139 460 139 q 609 161 580 139 q 637 221 637 184 q 613 265 637 245 q 532 310 589 286 q 385 366 491 328 q 232 433 279 404 q 135 527 168 472 q 102 647 102 582 q 209 868 102 770 q 457 965 316 965 q 569 948 510 965 q 700 896 629 931 z "},"T":{"ha":839,"x_min":31,"x_max":808,"o":"m 50 981 l 146 981 l 151 946 l 689 946 l 693 981 l 789 981 l 808 692 l 717 692 q 674 788 707 756 q 581 819 640 819 l 564 819 l 564 106 l 646 106 l 646 0 l 193 0 l 193 106 l 275 106 l 275 819 l 258 819 q 166 788 199 819 q 123 692 133 757 l 31 692 l 50 981 z "},"U":{"ha":1105,"x_min":74,"x_max":1032,"o":"m 74 946 l 431 946 l 431 277 q 461 177 431 210 q 555 144 492 144 q 644 182 613 144 q 675 289 675 219 l 675 839 l 607 839 l 607 946 l 964 946 l 964 106 l 1032 106 l 1032 0 l 689 0 l 676 92 q 553 8 618 36 q 414 -20 488 -20 q 213 59 284 -20 q 142 282 142 137 l 142 839 l 74 839 l 74 946 z "},"V":{"ha":917,"x_min":5,"x_max":907,"o":"m 697 721 q 687 717 692 718 q 676 715 682 715 q 621 726 659 715 q 559 736 583 736 q 478 708 513 736 q 421 627 443 680 l 538 261 l 697 721 m 863 950 l 907 901 q 850 774 880 857 l 847 765 l 627 139 q 604 67 613 101 q 590 0 595 33 l 335 0 q 319 58 328 26 q 294 135 309 89 l 58 839 l 5 839 l 5 946 l 404 946 l 404 839 l 354 839 l 399 694 q 517 886 446 818 q 668 954 588 954 q 739 944 695 954 q 802 933 783 933 q 833 938 818 933 q 863 950 849 942 z "},"W":{"ha":1360,"x_min":5,"x_max":1352,"o":"m 1141 720 q 1132 717 1137 718 q 1121 715 1126 715 q 1065 726 1104 715 q 1002 736 1025 736 q 932 711 962 736 q 872 629 902 687 l 977 237 l 1141 720 m 1307 950 l 1352 901 q 1295 774 1324 857 l 1292 765 l 1071 139 q 1048 66 1057 101 q 1034 0 1040 32 l 793 0 q 774 71 784 37 q 755 135 765 104 l 677 374 l 596 139 q 575 70 584 104 q 561 0 566 36 l 317 0 q 300 63 310 30 q 279 135 291 97 l 58 839 l 5 839 l 5 946 l 399 946 l 399 839 l 345 839 l 505 237 l 621 562 l 539 839 l 486 839 l 486 946 l 851 946 l 851 839 l 817 839 l 851 708 q 983 892 918 830 q 1112 954 1049 954 q 1183 944 1139 954 q 1246 933 1227 933 q 1278 938 1263 933 q 1307 950 1293 942 z "},"X":{"ha":946,"x_min":26,"x_max":917,"o":"m 68 946 l 529 946 l 529 839 l 443 839 l 575 611 l 699 839 l 631 839 l 631 946 l 889 946 l 889 839 l 839 839 l 650 485 l 868 106 l 917 106 l 917 0 l 456 0 l 456 106 l 545 106 l 382 390 l 215 106 l 306 106 l 306 0 l 26 0 l 26 106 l 71 106 l 309 514 l 119 839 l 68 839 l 68 946 z "},"Y":{"ha":868,"x_min":-4,"x_max":865,"o":"m -4 946 l 446 946 l 446 839 l 367 839 l 517 574 l 673 839 l 589 839 l 589 946 l 865 946 l 865 839 l 818 839 l 433 184 q 479 203 458 197 q 517 210 500 210 q 568 203 536 210 q 615 197 601 197 q 668 211 648 197 q 705 257 689 224 l 765 241 l 704 4 q 652 -14 680 -8 q 589 -20 624 -20 q 481 -5 553 -20 q 375 9 410 9 q 324 5 351 9 q 256 -12 296 0 l 200 40 l 363 310 l 39 839 l -4 839 l -4 946 z "},"Z":{"ha":772,"x_min":28,"x_max":733,"o":"m 106 987 l 205 987 l 207 946 l 676 946 l 728 808 q 681 751 720 799 q 614 668 642 703 l 269 249 q 341 240 306 243 q 410 237 376 237 q 575 261 521 237 q 646 338 630 284 l 733 338 l 707 -45 l 611 -45 l 607 0 l 89 0 l 28 150 l 505 734 q 426 745 463 742 q 355 749 389 749 q 232 722 277 749 q 167 633 188 694 l 69 633 l 106 987 z "},"[":{"ha":463,"x_min":110,"x_max":440,"o":"m 110 946 l 440 946 l 440 836 l 328 836 l 328 -81 l 440 -81 l 440 -191 l 110 -191 l 110 946 z "},"\\":{"ha":482,"x_min":1,"x_max":517,"o":"m 1 964 l 138 964 l 517 -129 l 380 -129 l 1 964 z "},"]":{"ha":463,"x_min":22,"x_max":354,"o":"m 22 945 l 354 945 l 354 -191 l 22 -191 l 22 -81 l 135 -81 l 135 836 l 22 836 l 22 945 z "},"^":{"ha":1389,"x_min":279,"x_max":1107,"o":"m 606 991 l 782 991 l 1107 608 l 1025 608 l 693 844 l 361 608 l 279 608 l 606 991 z "},"_":{"ha":694,"x_min":0,"x_max":694,"o":"m 0 -165 l 694 -165 l 694 -328 l 0 -328 l 0 -165 z "},"`":{"ha":694,"x_min":140,"x_max":465,"o":"m 140 1028 l 335 1028 l 465 777 l 361 777 l 140 1028 z "},"a":{"ha":814,"x_min":40,"x_max":746,"o":"m 450 361 q 426 365 434 363 q 415 366 418 366 q 326 331 358 366 q 293 236 293 296 q 313 156 293 183 q 371 129 332 129 q 429 153 407 129 q 450 216 450 177 l 450 361 m 218 730 l 292 704 l 278 665 q 363 692 319 683 q 454 701 408 701 q 632 642 567 701 q 697 481 697 583 l 697 86 l 746 86 l 746 0 l 471 0 l 452 65 q 356 2 404 23 q 261 -20 309 -20 q 101 41 163 -20 q 40 196 40 101 q 129 384 40 321 q 393 447 217 447 q 417 447 404 447 q 450 444 429 446 l 450 481 q 427 534 450 514 q 363 554 403 554 q 281 532 320 554 q 210 468 241 510 l 127 500 l 218 730 z "},"b":{"ha":823,"x_min":58,"x_max":785,"o":"m 354 250 q 379 145 354 182 q 450 109 404 109 q 528 153 499 109 q 557 277 557 198 q 516 466 557 393 q 414 539 476 539 q 386 535 399 539 q 354 519 372 530 l 354 250 m 406 958 l 406 871 l 354 854 l 354 614 q 467 681 418 660 q 559 701 516 701 q 721 625 656 701 q 785 435 785 549 q 748 257 785 340 q 639 106 711 173 q 500 12 574 44 q 347 -20 427 -20 q 221 2 287 -20 q 106 58 155 23 l 106 775 l 58 760 l 58 847 l 406 958 z "},"c":{"ha":692,"x_min":37,"x_max":665,"o":"m 657 558 l 468 376 q 405 523 442 471 q 325 575 367 575 q 274 547 292 575 q 256 465 256 518 q 309 260 256 340 q 444 180 361 180 q 531 203 490 180 q 602 268 572 227 l 665 221 q 526 42 610 104 q 338 -20 442 -20 q 122 71 206 -20 q 37 301 37 161 q 150 582 37 463 q 410 701 262 701 q 548 665 485 701 q 657 558 611 628 z "},"d":{"ha":856,"x_min":37,"x_max":787,"o":"m 489 476 q 463 564 489 530 q 399 597 437 597 q 314 543 345 597 q 283 392 283 489 q 322 210 283 277 q 427 143 361 143 q 461 150 446 143 q 489 168 477 156 l 489 476 m 787 958 l 787 871 l 736 854 l 736 86 l 785 86 l 785 0 l 507 0 l 489 78 q 392 5 441 30 q 296 -20 343 -20 q 110 70 182 -20 q 37 302 37 159 q 132 588 37 474 q 363 701 227 701 q 430 694 400 701 q 489 671 460 687 l 489 775 l 440 760 l 440 847 l 787 958 z "},"e":{"ha":739,"x_min":39,"x_max":713,"o":"m 587 378 l 318 268 q 394 177 349 208 q 497 146 439 146 q 586 163 545 146 q 663 216 627 181 l 713 163 q 555 25 641 70 q 363 -20 469 -20 q 130 81 220 -20 q 39 338 39 182 q 138 596 39 492 q 376 701 237 701 q 507 674 448 701 q 612 595 567 648 q 677 497 650 552 q 704 421 704 442 q 665 403 704 413 q 587 378 625 393 m 457 443 q 401 553 434 515 q 330 591 368 591 q 280 564 298 591 q 262 486 262 536 q 268 427 262 456 q 282 371 273 397 l 457 443 z "},"f":{"ha":514,"x_min":40,"x_max":599,"o":"m 599 878 l 443 746 q 406 831 427 802 q 359 860 385 860 q 333 847 342 860 q 323 811 323 835 q 368 701 323 749 q 478 653 413 653 l 518 653 l 473 543 l 370 543 l 370 86 l 450 86 l 450 0 l 74 0 l 74 86 l 122 86 l 122 543 l 40 543 l 85 653 l 155 653 q 124 705 133 683 q 115 751 115 726 q 138 822 115 788 q 205 888 161 857 q 319 943 256 922 q 435 964 383 964 q 531 943 492 964 q 599 878 570 922 z "},"g":{"ha":733,"x_min":22,"x_max":700,"o":"m 265 529 q 308 332 265 419 q 401 244 351 244 q 453 270 435 244 q 472 340 472 295 q 429 536 472 452 q 330 619 387 619 q 282 595 300 619 q 265 529 265 572 m 376 -20 q 352 -64 360 -42 q 345 -110 345 -87 q 360 -165 345 -145 q 403 -184 376 -184 q 439 -170 426 -184 q 453 -131 453 -155 q 433 -65 453 -94 q 376 -20 412 -35 m 22 92 q 163 130 99 109 q 277 175 228 151 q 102 268 166 199 q 37 431 37 337 q 132 624 37 546 q 368 701 227 701 q 437 697 404 701 q 498 685 469 693 q 547 787 521 762 q 629 812 574 812 q 653 811 640 812 q 677 807 665 810 l 650 676 q 622 689 633 686 q 603 693 611 693 q 584 687 591 693 q 576 671 576 681 q 638 598 576 671 q 700 435 700 525 q 612 244 700 320 q 339 123 524 169 q 594 56 515 101 q 672 -68 672 10 q 588 -202 672 -147 q 382 -257 505 -257 q 216 -222 275 -257 q 157 -125 157 -187 q 190 -45 157 -79 q 288 7 223 -12 q 228 15 251 12 q 186 17 205 17 q 149 15 168 17 q 104 7 129 12 l 22 92 z "},"h":{"ha":926,"x_min":71,"x_max":859,"o":"m 418 958 l 418 871 l 367 854 l 367 582 q 500 672 439 642 q 615 701 562 701 q 758 646 707 701 q 810 492 810 591 l 810 86 l 859 86 l 859 0 l 514 0 l 514 86 l 562 86 l 562 449 q 544 515 562 493 q 488 538 525 538 q 427 523 458 538 q 367 482 395 509 l 367 86 l 415 86 l 415 0 l 71 0 l 71 86 l 119 86 l 119 775 l 71 760 l 71 847 l 418 958 z "},"i":{"ha":489,"x_min":74,"x_max":418,"o":"m 367 701 l 376 701 q 371 629 373 657 q 370 582 370 601 l 370 86 l 418 86 l 418 0 l 74 0 l 74 86 l 122 86 l 122 551 l 74 543 l 74 621 l 367 701 m 271 917 q 350 894 320 917 q 380 835 380 871 q 331 751 380 786 q 211 717 281 717 q 142 739 168 717 q 117 796 117 760 q 163 880 117 843 q 271 917 210 917 z "},"j":{"ha":460,"x_min":18,"x_max":378,"o":"m 364 701 l 372 701 q 368 653 370 678 q 367 582 367 627 l 367 126 q 290 -138 367 -54 q 37 -232 213 -222 l 18 -167 q 97 -97 75 -139 q 119 28 119 -56 l 119 551 l 71 543 l 71 621 l 364 701 m 267 917 q 347 894 317 917 q 378 835 378 871 q 328 751 378 786 q 208 717 278 717 q 140 739 165 717 q 114 796 114 760 q 160 880 114 844 q 267 917 206 917 z "},"k":{"ha":856,"x_min":71,"x_max":831,"o":"m 364 494 l 364 290 l 507 395 l 525 395 l 566 343 q 588 376 581 358 q 595 419 595 395 q 558 503 595 469 q 468 538 522 538 q 413 527 439 538 q 364 494 386 515 m 415 958 l 415 871 l 364 854 l 364 589 q 490 674 433 648 q 604 701 548 701 q 747 645 689 701 q 804 505 804 588 q 753 371 804 427 q 606 288 701 314 l 765 86 l 831 86 l 831 0 l 541 0 l 364 257 l 364 86 l 411 86 l 411 0 l 71 0 l 71 86 l 119 86 l 119 775 l 71 760 l 71 847 l 415 958 z "},"l":{"ha":486,"x_min":71,"x_max":418,"o":"m 418 958 l 418 871 l 367 854 l 367 86 l 415 86 l 415 0 l 71 0 l 71 86 l 119 86 l 119 775 l 71 760 l 71 847 l 418 958 z "},"m":{"ha":1325,"x_min":74,"x_max":1257,"o":"m 367 701 l 376 701 l 366 599 q 493 677 439 654 q 595 701 547 701 q 703 671 654 701 q 775 590 752 642 q 903 674 844 646 q 1014 701 962 701 q 1157 646 1105 701 q 1208 492 1208 591 l 1208 86 l 1257 86 l 1257 0 l 913 0 l 913 86 l 961 86 l 961 449 q 943 516 961 495 q 888 538 926 538 q 841 528 864 538 q 789 496 818 518 l 789 86 l 838 86 l 838 0 l 493 0 l 493 86 l 542 86 l 542 449 q 524 516 542 495 q 468 538 507 538 q 421 528 445 538 q 370 496 398 518 l 370 86 l 418 86 l 418 0 l 74 0 l 74 86 l 122 86 l 122 551 l 74 543 l 74 621 l 367 701 z "},"n":{"ha":929,"x_min":74,"x_max":861,"o":"m 367 701 l 376 701 l 370 582 q 503 672 441 642 q 618 701 565 701 q 762 646 709 701 q 814 492 814 591 l 814 86 l 861 86 l 861 0 l 518 0 l 518 86 l 566 86 l 566 449 q 547 515 566 493 q 490 538 528 538 q 430 523 461 538 q 370 482 398 509 l 370 86 l 418 86 l 418 0 l 74 0 l 74 86 l 122 86 l 122 551 l 74 543 l 74 621 l 367 701 z "},"o":{"ha":848,"x_min":39,"x_max":810,"o":"m 555 254 q 500 494 555 391 q 380 597 445 597 q 316 555 339 597 q 293 436 293 513 q 347 189 293 293 q 465 85 400 85 q 532 128 509 85 q 555 254 555 171 m 425 701 q 700 599 591 701 q 810 340 810 496 q 701 82 810 184 q 425 -20 592 -20 q 148 82 258 -20 q 39 340 39 184 q 148 599 39 497 q 425 701 258 701 z "},"p":{"ha":861,"x_min":71,"x_max":823,"o":"m 367 228 q 390 113 367 151 q 460 75 413 75 q 542 131 514 75 q 570 297 570 187 q 528 492 570 425 q 407 559 486 559 q 374 557 396 559 q 367 557 369 557 l 367 228 m 357 701 l 366 701 l 367 631 q 463 684 416 666 q 555 701 510 701 q 746 607 668 701 q 823 370 823 513 q 728 93 823 206 q 496 -20 633 -20 q 422 -10 455 -20 q 367 20 390 0 l 367 -144 l 453 -144 l 453 -232 l 71 -232 l 71 -144 l 119 -144 l 119 551 l 71 543 l 71 621 l 357 701 z "},"q":{"ha":861,"x_min":39,"x_max":790,"o":"m 494 463 q 470 563 494 528 q 399 597 445 597 q 311 547 343 597 q 279 408 279 496 q 323 211 279 289 q 433 134 368 134 q 463 137 448 134 q 494 147 478 140 l 494 463 m 627 629 l 751 692 q 745 626 747 653 q 743 586 743 599 l 743 -144 l 790 -144 l 790 -232 l 408 -232 l 408 -144 l 494 -144 l 494 56 q 397 -1 444 18 q 304 -20 350 -20 q 115 70 191 -20 q 39 296 39 160 q 156 582 39 462 q 429 701 273 701 q 530 684 481 701 q 627 629 578 666 z "},"r":{"ha":640,"x_min":24,"x_max":654,"o":"m 581 708 l 654 682 l 572 450 q 505 473 532 466 q 458 481 477 481 q 393 453 417 481 q 370 375 370 425 l 370 86 l 440 86 l 440 0 l 74 0 l 74 86 l 122 86 l 122 435 q 117 471 122 462 q 100 489 113 481 l 74 468 l 24 524 l 174 701 q 274 638 237 672 q 326 561 311 604 q 414 676 385 651 q 475 701 443 701 q 516 695 492 701 q 566 676 539 688 l 581 708 z "},"s":{"ha":611,"x_min":4,"x_max":581,"o":"m 561 625 l 460 465 q 356 568 401 535 q 275 602 311 602 q 244 590 256 602 q 232 561 232 579 q 255 519 232 539 q 346 464 277 498 q 539 340 497 388 q 581 227 581 293 q 494 52 581 124 q 279 -20 408 -20 q 135 5 203 -20 q 4 79 66 30 l 118 256 q 250 133 192 174 q 349 92 309 92 q 384 103 372 92 q 396 135 396 114 q 272 237 396 171 l 271 237 q 251 248 264 241 q 65 469 65 349 q 137 637 65 572 q 328 701 210 701 q 447 682 389 701 q 561 625 505 663 z "},"t":{"ha":521,"x_min":52,"x_max":517,"o":"m 294 856 l 364 840 l 364 675 l 485 675 l 471 595 q 464 570 468 574 q 450 566 460 566 l 364 566 l 364 215 q 378 141 364 163 q 424 119 391 119 q 450 124 436 119 q 481 139 464 129 l 517 86 q 410 7 467 35 q 296 -20 353 -20 q 158 25 201 -20 q 115 172 115 71 l 115 566 l 52 566 l 52 644 q 204 724 144 671 q 294 856 265 777 z "},"u":{"ha":900,"x_min":68,"x_max":829,"o":"m 354 701 l 364 701 l 364 233 q 381 167 364 189 q 433 144 399 144 q 485 157 458 144 q 533 191 511 169 l 533 551 l 486 543 l 486 621 l 772 701 l 781 701 l 781 86 l 829 86 l 829 0 l 550 0 l 521 83 q 413 7 467 33 q 310 -20 359 -20 q 167 36 218 -20 q 115 191 115 91 l 115 551 l 68 543 l 68 621 l 354 701 z "},"v":{"ha":726,"x_min":-8,"x_max":721,"o":"m 555 529 q 534 511 545 517 q 513 505 524 505 q 461 517 495 505 q 415 529 427 529 q 379 517 394 529 q 345 469 363 505 l 440 248 l 555 529 m 256 701 q 280 624 263 669 q 321 528 297 578 q 396 652 354 612 q 493 692 437 692 q 562 679 516 692 q 631 667 607 667 q 663 672 648 667 q 692 687 679 677 l 721 659 q 672 551 703 625 q 665 534 667 540 l 496 119 q 491 109 494 116 q 455 0 462 38 l 296 0 q 261 92 287 39 q 257 102 258 98 l 66 509 l 24 490 l -8 553 l 256 701 z "},"w":{"ha":1109,"x_min":-8,"x_max":1104,"o":"m 937 529 q 916 511 926 517 q 895 505 905 505 q 843 517 877 505 q 798 529 808 529 q 762 517 777 529 q 725 467 747 505 l 817 225 l 937 529 m 256 701 q 303 566 266 659 q 318 528 313 541 l 437 225 l 504 404 l 458 509 l 415 490 l 383 553 l 639 701 q 663 621 647 665 q 703 528 680 576 q 783 651 739 610 q 880 692 827 692 q 948 679 903 692 q 1014 667 992 667 q 1046 672 1031 667 q 1075 688 1061 677 l 1104 659 q 1056 552 1086 625 q 1048 534 1051 541 l 878 119 q 873 109 876 116 q 837 0 844 37 l 677 0 q 663 49 671 24 q 640 102 654 73 l 558 286 l 493 119 q 471 57 479 85 q 456 0 462 28 l 296 0 q 261 92 287 39 q 257 102 258 98 l 66 509 l 24 490 l -8 553 l 256 701 z "},"x":{"ha":758,"x_min":11,"x_max":726,"o":"m 58 682 l 446 682 l 446 595 l 383 595 l 464 450 l 557 595 l 517 595 l 517 682 l 717 682 l 717 595 l 676 595 l 521 357 l 676 86 l 726 86 l 726 0 l 340 0 l 340 86 l 401 86 l 297 267 l 178 86 l 228 86 l 228 0 l 11 0 l 11 86 l 58 86 l 241 363 l 109 595 l 64 595 l 58 682 z "},"y":{"ha":753,"x_min":-8,"x_max":754,"o":"m 570 514 q 553 507 561 509 q 539 505 546 505 q 484 517 517 505 q 436 529 452 529 q 392 509 414 529 q 353 450 371 489 l 444 248 l 570 514 m 256 701 q 281 621 264 665 q 328 510 298 576 q 426 656 387 621 q 517 692 465 692 q 590 679 542 692 q 661 667 638 667 q 694 672 678 667 q 725 686 711 677 l 754 656 q 725 607 742 638 q 685 525 709 576 l 424 -31 q 308 -203 368 -149 q 175 -257 249 -257 q 118 -251 146 -257 q 69 -235 90 -245 l 109 -52 q 171 -78 144 -69 q 220 -86 198 -86 q 278 -71 253 -86 q 315 -26 303 -55 l 332 12 l 66 509 l 24 490 l -8 553 l 256 701 z "},"z":{"ha":611,"x_min":8,"x_max":583,"o":"m 104 717 l 180 717 l 183 682 l 532 682 l 567 599 q 515 545 545 580 q 509 536 511 539 l 210 184 q 241 177 224 180 q 275 175 258 175 q 414 204 356 175 q 514 294 472 233 l 583 281 l 534 -41 l 458 -41 l 456 0 l 65 0 l 8 117 l 358 526 q 314 532 334 530 q 279 534 293 534 q 182 514 222 534 q 113 447 142 493 l 50 465 l 104 717 z "},"{":{"ha":694,"x_min":121,"x_max":578,"o":"m 578 1028 l 578 983 q 475 947 503 981 q 447 806 447 912 l 447 717 q 413 508 447 563 q 288 431 378 452 q 413 354 378 408 q 447 146 447 299 l 447 57 q 475 -85 447 -50 q 578 -123 503 -120 l 578 -165 l 570 -165 q 356 -115 414 -165 q 298 69 298 -65 l 298 196 q 261 352 298 310 q 121 404 224 394 l 121 458 q 261 510 224 468 q 298 667 298 553 l 298 793 q 356 978 298 928 q 570 1028 414 1028 l 578 1028 z "},"|":{"ha":694,"x_min":267,"x_max":429,"o":"m 267 1061 l 429 1061 l 429 -328 l 267 -328 l 267 1061 z "},"}":{"ha":694,"x_min":117,"x_max":574,"o":"m 117 1028 l 125 1028 q 338 978 280 1028 q 396 793 396 928 l 396 667 q 433 510 396 553 q 574 458 470 468 l 574 404 q 433 352 470 394 q 396 196 396 310 l 396 69 q 338 -115 396 -65 q 125 -165 280 -165 l 117 -165 l 117 -123 q 220 -85 192 -120 q 248 57 248 -50 l 248 146 q 282 354 248 299 q 407 431 316 408 q 282 509 316 454 q 248 717 248 564 l 248 806 q 220 947 248 912 q 117 983 192 981 l 117 1028 z "},"~":{"ha":1157,"x_min":121,"x_max":1038,"o":"m 1038 555 l 1038 383 q 906 313 969 336 q 782 290 843 290 q 722 295 751 290 q 665 310 692 300 q 640 319 656 313 q 380 379 467 379 q 261 354 323 379 q 121 272 199 328 l 121 444 q 261 518 197 494 q 383 542 326 542 q 469 534 426 542 q 584 503 512 526 q 618 491 595 499 q 786 453 726 453 q 904 477 843 453 q 1038 555 964 502 z "}," ":{"ha":733,"x_min":0,"x_max":0,"o":""},"¡":{"ha":489,"x_min":98,"x_max":390,"o":"m 187 653 l 301 653 l 301 647 q 346 327 301 492 q 390 136 390 161 q 350 23 390 65 q 244 -20 311 -20 q 138 22 178 -20 q 98 136 98 64 q 143 327 98 163 q 187 647 187 492 l 187 653 m 244 964 q 316 933 285 964 q 347 861 347 902 q 317 789 347 820 q 244 758 286 758 q 172 788 201 758 q 142 861 142 819 q 172 933 142 903 q 244 964 203 964 z "},"¢":{"ha":733,"x_min":93,"x_max":639,"o":"m 302 861 l 450 861 l 450 724 q 555 681 509 712 q 632 600 601 650 l 469 440 q 402 581 429 545 q 343 616 375 616 q 298 591 315 616 q 282 518 282 565 q 329 343 282 414 q 446 272 376 272 q 522 292 486 272 q 583 349 558 313 l 639 307 q 558 187 606 235 q 450 114 511 139 l 450 -52 l 302 -52 l 302 104 q 152 195 210 119 q 93 376 93 271 q 149 568 93 483 q 302 699 204 653 l 302 861 z "},"£":{"ha":733,"x_min":74,"x_max":653,"o":"m 653 717 l 468 566 q 414 688 445 645 q 351 732 384 732 q 313 719 327 732 q 298 682 298 705 q 345 583 298 649 q 406 471 391 516 l 554 471 l 554 368 l 412 368 q 375 268 407 315 q 285 183 342 221 l 468 183 q 537 200 515 183 q 567 257 559 216 l 644 257 l 623 -29 l 549 -29 l 543 0 l 125 0 l 82 153 q 164 239 138 194 q 191 338 191 283 l 191 368 l 74 368 l 74 471 l 168 471 q 126 542 139 509 q 113 607 113 575 q 204 770 113 696 q 410 843 296 843 q 539 811 478 843 q 653 717 600 779 z "},"¤":{"ha":733,"x_min":0,"x_max":721,"o":"m 721 211 q 583 41 669 104 q 400 -22 496 -22 q 183 66 270 -22 q 77 302 96 154 l 0 302 l 14 375 l 71 375 q 72 418 71 398 q 77 457 73 438 l 0 457 l 14 529 l 90 529 q 222 760 130 674 q 437 846 314 846 q 529 825 489 846 q 604 761 570 805 l 640 793 l 693 729 l 482 557 l 433 615 q 452 633 445 620 q 458 665 458 647 q 436 714 458 694 q 382 734 413 734 q 308 683 334 734 q 282 533 282 631 l 282 529 l 539 529 l 525 457 l 286 456 q 292 418 288 437 q 302 375 295 399 l 511 375 l 497 302 l 326 302 q 401 202 356 237 q 500 167 446 167 q 583 188 547 167 q 660 261 618 208 l 721 211 z "},"¥":{"ha":733,"x_min":-14,"x_max":736,"o":"m -14 823 l 318 823 l 318 739 l 262 739 l 410 389 l 550 739 l 503 739 l 503 823 l 736 823 l 736 739 l 676 739 l 590 543 l 705 543 l 705 453 l 549 453 l 522 389 l 705 389 l 705 298 l 482 298 l 482 83 l 546 83 l 546 0 l 205 0 l 205 83 l 269 83 l 269 298 l 28 298 l 28 389 l 227 389 l 193 453 l 28 453 l 28 543 l 150 543 l 58 739 l -14 739 l -14 823 z "},"¦":{"ha":694,"x_min":267,"x_max":429,"o":"m 267 277 l 429 277 l 429 -237 l 267 -237 l 267 277 m 267 971 l 429 971 l 429 457 l 267 457 l 267 971 z "},"§":{"ha":694,"x_min":40,"x_max":648,"o":"m 445 296 q 494 351 477 326 q 510 399 510 376 q 463 460 510 435 q 227 532 416 486 q 181 480 196 506 q 165 431 165 454 q 395 309 165 369 q 445 296 427 300 m 507 271 q 585 203 557 248 q 612 97 612 158 q 529 -93 612 -12 q 334 -174 445 -174 q 249 -163 292 -174 q 158 -132 206 -153 l 136 -172 l 64 -151 l 136 65 q 275 -22 212 7 q 393 -50 338 -50 q 459 -32 433 -50 q 485 12 485 -13 q 347 96 485 60 q 317 104 328 101 q 95 195 149 147 q 40 326 40 243 q 73 456 40 395 q 167 555 106 516 q 101 626 124 582 q 78 725 78 670 q 156 895 78 824 q 347 965 233 965 q 434 955 388 965 q 536 924 479 945 l 558 968 l 631 942 l 559 772 q 422 843 490 818 q 306 868 355 868 q 242 850 267 868 q 218 806 218 833 q 355 726 218 762 q 371 722 366 724 q 596 629 543 677 q 648 498 648 581 q 613 378 648 435 q 507 271 578 321 z "},"¨":{"ha":694,"x_min":117,"x_max":576,"o":"m 479 999 q 548 971 519 999 q 576 903 576 943 q 549 832 576 861 q 479 804 521 804 q 410 833 439 804 q 380 901 380 862 q 410 970 380 941 q 479 999 439 999 m 215 999 q 283 971 256 999 q 311 903 311 943 q 284 832 311 860 q 215 804 257 804 q 146 833 175 804 q 117 901 117 862 q 146 970 117 941 q 215 999 176 999 z "},"©":{"ha":1141,"x_min":66,"x_max":1075,"o":"m 765 749 l 799 749 l 799 525 l 764 525 q 697 662 744 613 q 586 710 650 710 q 472 648 510 710 q 435 464 435 587 q 476 275 435 340 q 596 210 517 210 q 693 240 648 210 q 778 329 739 270 l 812 307 q 709 197 769 234 q 575 160 650 160 q 359 243 445 160 q 273 450 273 326 q 356 667 273 582 q 568 751 439 751 q 675 729 624 751 q 729 707 726 707 q 752 716 744 707 q 765 749 760 725 m 572 889 q 408 856 487 889 q 269 762 329 823 q 177 623 209 701 q 144 460 144 545 q 176 294 144 372 q 269 157 208 217 q 409 63 332 95 q 571 32 485 32 q 734 64 657 32 q 871 157 811 96 q 964 297 931 218 q 997 460 997 376 q 964 626 997 545 q 872 764 931 706 q 733 856 812 823 q 572 889 654 889 m 572 965 q 763 927 670 965 q 926 818 855 888 q 1036 653 997 747 q 1075 460 1075 559 q 1037 269 1075 361 q 926 104 998 177 q 764 -5 855 33 q 571 -43 672 -43 q 379 -5 470 -43 q 215 104 288 33 q 105 267 143 175 q 66 460 66 358 q 104 652 66 561 q 214 815 142 743 q 378 926 285 887 q 572 965 471 965 z "},"ª":{"ha":611,"x_min":31,"x_max":559,"o":"m 338 721 q 322 723 331 722 q 311 724 313 724 q 244 699 269 724 q 220 633 220 675 q 234 577 220 597 q 278 558 249 558 q 321 575 305 558 q 338 619 338 591 l 338 721 m 164 979 l 220 961 l 208 933 q 273 953 239 946 q 340 960 307 960 q 474 918 425 960 q 524 804 524 876 l 524 528 l 559 528 l 559 468 l 353 468 l 339 514 q 267 469 302 484 q 196 454 231 454 q 76 496 122 454 q 31 606 31 538 q 97 737 31 693 q 294 781 163 781 q 321 780 313 781 q 337 779 330 780 l 338 804 q 320 842 338 828 q 272 856 302 856 q 211 841 240 856 q 157 796 181 825 l 96 818 l 164 979 z "},"«":{"ha":636,"x_min":39,"x_max":599,"o":"m 469 624 l 599 624 l 521 350 l 590 78 l 461 78 l 313 350 l 469 624 m 196 624 l 325 624 l 248 350 l 317 78 l 187 78 l 39 350 l 196 624 z "},"¬":{"ha":1157,"x_min":172,"x_max":985,"o":"m 172 587 l 985 587 l 985 248 l 829 248 l 829 433 l 172 433 l 172 587 z "},"­":{"ha":437,"x_min":39,"x_max":399,"o":"m 39 443 l 399 443 l 399 252 l 39 252 l 39 443 z "},"®":{"ha":1141,"x_min":66,"x_max":1075,"o":"m 524 494 q 534 492 529 492 q 550 492 540 492 q 636 521 608 492 q 665 610 665 551 q 639 680 665 652 q 572 708 613 708 q 535 697 547 708 q 524 665 524 687 l 524 494 m 314 746 l 589 746 q 749 708 688 746 q 810 610 810 670 q 766 517 810 551 q 623 467 722 484 q 740 407 701 451 q 778 290 778 363 q 785 244 778 258 q 807 231 791 231 q 833 252 824 231 q 843 311 843 273 l 843 319 l 880 319 q 881 309 880 316 q 882 300 882 302 q 850 208 882 239 q 754 178 818 178 q 700 186 724 178 q 663 211 676 195 q 638 302 641 236 q 635 346 637 331 q 603 430 626 405 q 534 456 579 456 l 524 456 l 524 290 q 536 247 524 260 q 583 229 548 235 l 583 191 l 314 191 l 314 229 q 367 245 353 233 q 380 290 380 258 l 380 646 q 368 690 380 677 q 314 708 355 703 l 314 746 m 572 889 q 407 856 486 889 q 268 762 327 823 q 176 624 208 701 q 144 460 144 546 q 176 294 144 372 q 269 157 208 217 q 409 63 332 95 q 571 32 485 32 q 734 64 657 32 q 871 157 811 96 q 964 297 931 218 q 997 460 997 376 q 964 625 997 545 q 871 764 930 705 q 732 856 810 823 q 572 889 654 889 m 572 965 q 770 924 674 965 q 936 810 865 884 q 1039 647 1003 741 q 1075 449 1075 553 q 1032 259 1075 353 q 913 92 989 164 q 755 -9 844 26 q 571 -45 667 -45 q 427 -23 497 -45 q 293 39 357 -2 q 126 221 185 111 q 66 460 66 332 q 104 652 66 561 q 214 815 142 744 q 378 926 285 887 q 572 965 471 965 z "},"¯":{"ha":694,"x_min":139,"x_max":555,"o":"m 139 958 l 555 958 l 555 844 l 139 844 l 139 958 z "},"°":{"ha":457,"x_min":18,"x_max":440,"o":"m 229 896 q 150 863 182 896 q 117 785 117 831 q 149 705 117 737 q 229 672 182 672 q 308 705 275 672 q 340 785 340 739 q 308 863 340 831 q 229 896 275 896 m 229 994 q 378 932 317 994 q 440 783 440 871 q 378 634 440 696 q 228 572 316 572 q 79 634 140 572 q 18 783 18 695 q 80 933 18 872 q 229 994 141 994 z "},"±":{"ha":1157,"x_min":172,"x_max":985,"o":"m 172 144 l 985 144 l 985 -12 l 172 -12 l 172 144 m 498 842 l 660 842 l 660 625 l 985 625 l 985 468 l 660 468 l 660 252 l 498 252 l 498 468 l 172 468 l 172 625 l 498 625 l 498 842 z "},"²":{"ha":484,"x_min":33,"x_max":450,"o":"m 236 439 l 323 439 q 370 449 355 439 q 389 484 384 459 l 440 484 l 425 311 l 376 311 l 374 329 l 77 329 l 64 400 q 229 530 170 461 q 288 661 288 599 q 260 738 288 706 q 197 770 232 770 q 166 759 178 770 q 155 728 155 747 q 178 685 155 705 q 241 654 201 665 l 165 526 q 69 573 104 536 q 33 660 33 609 q 100 782 33 728 q 257 835 167 835 q 395 794 340 835 q 450 693 450 754 q 400 581 450 641 q 236 439 350 522 z "},"³":{"ha":484,"x_min":28,"x_max":437,"o":"m 28 389 l 139 489 q 202 423 174 443 q 260 403 231 403 q 303 417 286 403 q 319 453 319 431 q 275 525 319 491 q 182 559 231 559 q 167 558 175 559 q 142 554 159 557 l 115 587 l 258 720 l 191 720 q 137 711 158 720 q 97 685 116 703 l 49 701 l 119 856 l 165 840 l 160 823 l 390 823 l 416 765 l 302 660 q 401 613 364 650 q 437 524 437 576 q 369 379 437 439 q 204 318 301 318 q 112 336 156 318 q 28 389 68 353 z "},"´":{"ha":694,"x_min":229,"x_max":554,"o":"m 359 1028 l 554 1028 l 334 777 l 229 777 l 359 1028 z "},"µ":{"ha":836,"x_min":-66,"x_max":804,"o":"m 149 129 q 130 -33 140 68 q 20 -289 103 -289 q -43 -266 -19 -289 q -66 -205 -66 -242 q -20 -15 -66 -168 q 52 254 27 138 l 125 600 l 323 600 l 252 262 q 241 212 245 233 q 237 178 237 190 q 256 119 237 141 q 307 97 275 97 q 378 134 349 97 q 424 250 406 172 l 498 600 l 696 600 l 621 244 q 614 211 616 227 q 612 182 612 195 q 626 136 612 153 q 663 119 639 119 q 696 129 680 119 q 724 154 712 138 q 741 182 730 163 q 785 225 764 225 q 798 217 792 225 q 804 199 804 209 q 790 140 804 178 q 754 69 776 101 q 689 7 726 27 q 604 -14 652 -14 q 512 19 543 -14 q 475 118 480 51 q 408 19 450 52 q 306 -14 366 -14 q 197 23 237 -14 q 149 129 156 60 z "},"¶":{"ha":694,"x_min":20,"x_max":676,"o":"m 676 1003 l 676 920 l 604 920 l 604 0 l 485 0 l 485 920 l 383 920 l 383 0 l 265 0 l 265 532 q 87 600 154 536 q 20 766 20 665 q 92 938 20 873 q 283 1003 163 1003 l 676 1003 z "},"·":{"ha":367,"x_min":81,"x_max":286,"o":"m 183 514 q 256 484 226 514 q 286 411 286 454 q 256 339 286 369 q 183 309 225 309 q 112 339 142 309 q 81 411 81 370 q 111 483 81 452 q 183 514 142 514 z "},"¸":{"ha":694,"x_min":184,"x_max":554,"o":"m 309 0 l 386 0 l 386 -57 l 399 -57 q 514 -91 474 -57 q 554 -187 554 -124 q 509 -292 554 -255 q 382 -329 465 -329 q 291 -321 341 -329 q 184 -297 241 -313 l 184 -204 q 287 -227 238 -219 q 368 -235 335 -235 q 412 -223 397 -235 q 427 -186 427 -211 q 407 -154 427 -164 q 346 -143 388 -143 q 323 -143 332 -143 q 309 -144 315 -144 l 309 0 z "},"¹":{"ha":484,"x_min":117,"x_max":363,"o":"m 297 823 l 322 823 q 321 809 321 816 q 321 789 321 802 l 321 775 l 321 379 l 363 379 l 363 329 l 131 329 l 131 379 l 172 379 l 172 703 l 117 682 l 117 736 q 237 791 181 760 q 297 823 293 823 z "},"º":{"ha":636,"x_min":29,"x_max":607,"o":"m 416 646 q 375 814 416 742 q 286 886 334 886 q 237 857 254 886 q 220 774 220 827 q 260 601 220 673 q 349 528 300 528 q 399 557 382 528 q 416 646 416 587 m 319 960 q 525 888 444 960 q 607 707 607 817 q 526 526 607 597 q 319 454 444 454 q 112 526 194 454 q 29 707 29 597 q 112 888 29 817 q 319 960 195 960 z "},"»":{"ha":636,"x_min":39,"x_max":599,"o":"m 319 624 l 449 624 l 599 350 l 440 78 l 313 78 l 389 350 l 319 624 m 47 624 l 175 624 l 325 350 l 167 78 l 39 78 l 115 350 l 47 624 z "},"¼":{"ha":1156,"x_min":111,"x_max":1122,"o":"m 935 319 l 806 165 l 929 165 l 935 319 m 985 461 l 1069 461 q 1067 448 1068 455 q 1067 429 1067 441 l 1067 416 l 1067 165 l 1122 170 l 1105 102 l 1067 102 l 1067 47 l 1107 47 l 1107 0 l 880 0 l 880 47 l 928 47 l 928 102 l 733 102 l 733 158 l 985 461 m 791 842 l 925 842 l 366 -20 l 231 -20 l 791 842 m 282 823 l 307 823 q 305 810 305 817 q 304 791 304 803 l 304 779 l 304 410 l 345 410 l 345 363 l 122 363 l 122 410 l 163 410 l 163 711 l 111 692 l 111 742 q 225 793 172 764 q 282 823 278 823 z "},"½":{"ha":1156,"x_min":111,"x_max":1124,"o":"m 920 103 l 1003 103 q 1046 112 1032 103 q 1065 144 1060 121 l 1114 144 l 1100 -17 l 1054 -17 l 1050 0 l 766 0 l 754 66 q 913 186 856 122 q 970 310 970 251 q 943 381 970 352 q 882 411 916 411 q 853 400 864 411 q 842 372 842 390 q 865 332 842 351 q 925 302 888 313 l 851 184 q 760 228 794 194 q 726 309 726 261 q 790 422 726 373 q 940 472 854 472 q 1072 435 1020 472 q 1124 340 1124 397 q 1076 235 1124 291 q 920 103 1028 179 m 791 842 l 925 842 l 366 -20 l 231 -20 l 791 842 m 282 823 l 307 823 q 305 810 305 817 q 304 791 304 803 l 304 779 l 304 410 l 345 410 l 345 363 l 122 363 l 122 410 l 163 410 l 163 711 l 111 692 l 111 742 q 225 793 172 764 q 282 823 278 823 z "},"¾":{"ha":1156,"x_min":28,"x_max":1122,"o":"m 935 319 l 806 165 l 929 165 l 935 319 m 985 461 l 1069 461 q 1067 448 1068 455 q 1067 429 1067 441 l 1067 416 l 1067 165 l 1122 170 l 1105 102 l 1067 102 l 1067 47 l 1107 47 l 1107 0 l 880 0 l 880 47 l 928 47 l 928 102 l 733 102 l 733 158 l 985 461 m 791 842 l 925 842 l 366 -20 l 231 -20 l 791 842 m 28 418 l 134 513 q 193 450 165 469 q 249 431 220 431 q 289 444 273 431 q 304 478 304 457 q 263 546 304 514 q 174 578 221 578 q 160 577 168 578 q 135 572 152 576 l 110 604 l 248 726 l 180 726 q 131 719 151 726 q 93 694 111 711 l 46 710 l 115 854 l 157 840 l 153 823 l 372 823 l 397 770 l 289 671 q 382 628 347 663 q 418 545 418 593 q 353 409 418 466 q 195 351 288 351 q 108 368 150 351 q 28 418 66 385 z "},"¿":{"ha":668,"x_min":25,"x_max":627,"o":"m 290 652 l 441 651 q 445 614 444 631 q 446 587 446 597 q 428 490 446 538 q 371 386 410 442 q 355 364 365 378 q 285 210 285 269 q 310 125 285 161 q 370 90 335 90 q 416 113 399 90 q 432 178 432 136 q 422 237 432 203 q 393 309 412 270 l 591 400 q 618 325 609 362 q 627 249 627 287 q 536 56 627 132 q 306 -20 446 -20 q 102 46 180 -20 q 25 216 25 112 q 156 432 25 330 q 196 464 182 453 q 271 550 252 511 q 290 646 290 589 l 290 652 m 361 964 q 433 933 401 964 q 464 861 464 902 q 433 789 464 820 q 361 758 403 758 q 289 788 319 758 q 258 861 258 819 q 289 933 258 903 q 361 964 319 964 z "},"À":{"ha":951,"x_min":-1,"x_max":943,"o":"m 399 707 l 278 357 l 515 357 l 399 707 m 349 946 l 602 946 l 893 106 l 943 106 l 943 0 l 517 0 l 517 106 l 597 106 l 557 232 l 235 232 l 192 106 l 273 106 l 273 0 l -1 0 l -1 106 l 60 106 l 349 946 m 269 1292 l 464 1292 l 594 1040 l 490 1040 l 269 1292 z "},"Á":{"ha":951,"x_min":-1,"x_max":943,"o":"m 399 707 l 278 357 l 515 357 l 399 707 m 349 946 l 602 946 l 893 106 l 943 106 l 943 0 l 517 0 l 517 106 l 597 106 l 557 232 l 235 232 l 192 106 l 273 106 l 273 0 l -1 0 l -1 106 l 60 106 l 349 946 m 488 1292 l 683 1292 l 463 1040 l 358 1040 l 488 1292 z "},"Â":{"ha":951,"x_min":-1,"x_max":943,"o":"m 399 707 l 278 357 l 515 357 l 399 707 m 349 946 l 602 946 l 893 106 l 943 106 l 943 0 l 517 0 l 517 106 l 597 106 l 557 232 l 235 232 l 192 106 l 273 106 l 273 0 l -1 0 l -1 106 l 60 106 l 349 946 m 389 1292 l 562 1292 l 692 1040 l 589 1040 l 476 1175 l 362 1040 l 258 1040 l 389 1292 z "},"Ã":{"ha":951,"x_min":-1,"x_max":943,"o":"m 399 707 l 278 357 l 515 357 l 399 707 m 349 946 l 602 946 l 893 106 l 943 106 l 943 0 l 517 0 l 517 106 l 597 106 l 557 232 l 235 232 l 192 106 l 273 106 l 273 0 l -1 0 l -1 106 l 60 106 l 349 946 m 621 1261 l 701 1261 q 645 1129 680 1169 q 553 1089 610 1089 q 525 1091 538 1089 q 500 1096 512 1093 l 439 1114 l 435 1115 q 393 1124 405 1124 q 356 1111 370 1124 q 332 1071 341 1099 l 251 1071 q 306 1197 270 1156 q 397 1238 341 1238 q 422 1235 408 1238 q 458 1226 437 1232 l 522 1208 q 540 1204 530 1205 q 561 1202 549 1202 q 598 1217 583 1202 q 621 1261 613 1232 z "},"Ä":{"ha":951,"x_min":-1,"x_max":943,"o":"m 399 707 l 278 357 l 515 357 l 399 707 m 349 946 l 602 946 l 893 106 l 943 106 l 943 0 l 517 0 l 517 106 l 597 106 l 557 232 l 235 232 l 192 106 l 273 106 l 273 0 l -1 0 l -1 106 l 60 106 l 349 946 m 608 1263 q 677 1235 648 1263 q 705 1166 705 1206 q 677 1096 705 1124 q 608 1068 650 1068 q 538 1097 568 1068 q 509 1165 509 1126 q 539 1234 509 1204 q 608 1263 568 1263 m 344 1263 q 412 1235 385 1263 q 440 1166 440 1206 q 413 1096 440 1124 q 344 1068 386 1068 q 275 1097 304 1068 q 245 1165 245 1126 q 275 1234 245 1204 q 344 1263 304 1263 z "},"Å":{"ha":951,"x_min":-1,"x_max":943,"o":"m 399 707 l 278 357 l 515 357 l 399 707 m 349 946 l 602 946 l 893 106 l 943 106 l 943 0 l 517 0 l 517 106 l 597 106 l 557 232 l 235 232 l 192 106 l 273 106 l 273 0 l -1 0 l -1 106 l 60 106 l 349 946 m 475 1251 q 420 1229 443 1251 q 397 1174 397 1206 q 420 1119 397 1141 q 475 1097 442 1097 q 529 1119 507 1097 q 551 1174 551 1141 q 529 1229 551 1206 q 475 1251 507 1251 m 473 1358 q 605 1305 551 1358 q 659 1175 659 1251 q 605 1044 659 1098 q 473 990 551 990 q 343 1044 397 990 q 290 1175 290 1097 q 344 1305 290 1252 q 473 1358 397 1358 z "},"Æ":{"ha":1325,"x_min":-49,"x_max":1203,"o":"m 572 833 l 300 357 l 572 357 l 572 833 m 354 946 l 1203 946 l 1203 749 l 1107 749 l 1105 787 q 1033 819 1074 808 q 940 829 992 829 l 861 829 l 861 623 l 1107 623 l 1107 692 l 1203 692 l 1203 437 l 1107 437 l 1107 497 l 861 497 l 861 119 l 920 119 q 1029 136 983 119 q 1107 186 1075 153 l 1107 248 l 1203 248 l 1203 0 l 504 0 l 504 106 l 572 106 l 572 232 l 228 232 l 155 106 l 225 106 l 225 0 l -49 0 l -49 106 l 11 106 l 432 839 l 354 839 l 354 946 z "},"Ç":{"ha":875,"x_min":41,"x_max":879,"o":"m 739 868 l 783 904 l 842 823 l 547 585 l 490 653 q 515 687 507 668 q 524 729 524 707 q 498 799 524 770 q 435 828 473 828 q 340 769 375 828 q 304 611 304 711 q 387 316 304 435 q 591 196 469 196 q 707 222 654 196 q 807 302 760 248 l 879 237 q 695 44 796 107 q 468 -20 593 -20 q 161 109 281 -20 q 41 437 41 237 q 73 625 41 537 q 167 786 104 713 q 328 918 238 871 q 514 964 418 964 q 641 940 584 964 q 739 868 698 916 m 410 0 l 488 0 l 488 -57 l 500 -57 q 616 -91 576 -57 q 656 -187 656 -124 q 611 -292 656 -255 q 484 -329 566 -329 q 393 -321 443 -329 q 286 -297 342 -313 l 286 -204 q 388 -227 340 -219 q 470 -235 437 -235 q 514 -223 499 -235 q 528 -186 528 -211 q 509 -154 528 -164 q 448 -143 490 -143 q 425 -143 433 -143 q 410 -144 417 -144 l 410 0 z "},"È":{"ha":895,"x_min":74,"x_max":772,"o":"m 772 946 l 772 749 l 676 749 l 675 787 q 607 819 652 809 q 489 829 562 829 l 431 829 l 431 623 l 676 623 l 676 692 l 772 692 l 772 437 l 676 437 l 676 497 l 431 497 l 431 119 l 489 119 q 598 136 552 119 q 676 186 644 153 l 676 248 l 772 248 l 772 0 l 74 0 l 74 106 l 142 106 l 142 839 l 74 839 l 74 946 l 772 946 m 240 1292 l 435 1292 l 565 1040 l 460 1040 l 240 1292 z "},"É":{"ha":895,"x_min":74,"x_max":772,"o":"m 772 946 l 772 749 l 676 749 l 675 787 q 607 819 652 809 q 489 829 562 829 l 431 829 l 431 623 l 676 623 l 676 692 l 772 692 l 772 437 l 676 437 l 676 497 l 431 497 l 431 119 l 489 119 q 598 136 552 119 q 676 186 644 153 l 676 248 l 772 248 l 772 0 l 74 0 l 74 106 l 142 106 l 142 839 l 74 839 l 74 946 l 772 946 m 459 1292 l 654 1292 l 433 1040 l 329 1040 l 459 1292 z "},"Ê":{"ha":895,"x_min":74,"x_max":772,"o":"m 772 946 l 772 749 l 676 749 l 675 787 q 607 819 652 809 q 489 829 562 829 l 431 829 l 431 623 l 676 623 l 676 692 l 772 692 l 772 437 l 676 437 l 676 497 l 431 497 l 431 119 l 489 119 q 598 136 552 119 q 676 186 644 153 l 676 248 l 772 248 l 772 0 l 74 0 l 74 106 l 142 106 l 142 839 l 74 839 l 74 946 l 772 946 m 359 1292 l 533 1292 l 663 1040 l 559 1040 l 447 1175 l 333 1040 l 229 1040 l 359 1292 z "},"Ë":{"ha":895,"x_min":74,"x_max":772,"o":"m 772 946 l 772 749 l 676 749 l 675 787 q 607 819 652 809 q 489 829 562 829 l 431 829 l 431 623 l 676 623 l 676 692 l 772 692 l 772 437 l 676 437 l 676 497 l 431 497 l 431 119 l 489 119 q 598 136 552 119 q 676 186 644 153 l 676 248 l 772 248 l 772 0 l 74 0 l 74 106 l 142 106 l 142 839 l 74 839 l 74 946 l 772 946 m 579 1263 q 648 1235 619 1263 q 676 1166 676 1206 q 648 1096 676 1124 q 579 1068 621 1068 q 509 1097 538 1068 q 480 1165 480 1126 q 510 1234 480 1204 q 579 1263 539 1263 m 315 1263 q 383 1235 355 1263 q 411 1166 411 1206 q 384 1096 411 1124 q 315 1068 357 1068 q 245 1097 275 1068 q 216 1165 216 1126 q 246 1234 216 1204 q 315 1263 275 1263 z "},"Ì":{"ha":572,"x_min":74,"x_max":498,"o":"m 74 946 l 498 946 l 498 839 l 431 839 l 431 106 l 498 106 l 498 0 l 74 0 l 74 106 l 142 106 l 142 839 l 74 839 l 74 946 m 79 1292 l 274 1292 l 404 1040 l 300 1040 l 79 1292 z "},"Í":{"ha":572,"x_min":74,"x_max":498,"o":"m 74 946 l 498 946 l 498 839 l 431 839 l 431 106 l 498 106 l 498 0 l 74 0 l 74 106 l 142 106 l 142 839 l 74 839 l 74 946 m 298 1292 l 493 1292 l 273 1040 l 168 1040 l 298 1292 z "},"Î":{"ha":572,"x_min":68,"x_max":503,"o":"m 74 946 l 498 946 l 498 839 l 431 839 l 431 106 l 498 106 l 498 0 l 74 0 l 74 106 l 142 106 l 142 839 l 74 839 l 74 946 m 199 1292 l 372 1292 l 503 1040 l 399 1040 l 286 1175 l 172 1040 l 68 1040 l 199 1292 z "},"Ï":{"ha":572,"x_min":56,"x_max":515,"o":"m 74 946 l 498 946 l 498 839 l 431 839 l 431 106 l 498 106 l 498 0 l 74 0 l 74 106 l 142 106 l 142 839 l 74 839 l 74 946 m 418 1263 q 487 1235 458 1263 q 515 1166 515 1206 q 488 1096 515 1124 q 418 1068 460 1068 q 349 1097 378 1068 q 319 1165 319 1126 q 349 1234 319 1204 q 418 1263 378 1263 m 154 1263 q 222 1235 195 1263 q 250 1166 250 1206 q 223 1096 250 1124 q 154 1068 196 1068 q 85 1097 114 1068 q 56 1165 56 1126 q 85 1234 56 1204 q 154 1263 115 1263 z "},"Ð":{"ha":1007,"x_min":0,"x_max":964,"o":"m 431 819 l 431 624 l 543 624 l 543 492 l 431 492 l 431 125 l 460 125 q 604 218 553 125 q 656 484 656 312 q 604 735 656 652 q 450 819 553 819 l 431 819 m 74 946 l 456 946 q 829 823 695 946 q 964 484 964 700 q 922 265 964 359 q 794 100 881 171 q 648 23 729 46 q 429 0 567 0 l 74 0 l 74 106 l 142 106 l 142 492 l 0 492 l 0 624 l 142 624 l 142 839 l 74 839 l 74 946 z "},"Ñ":{"ha":997,"x_min":74,"x_max":922,"o":"m 74 946 l 389 946 l 730 449 l 730 839 l 663 839 l 663 946 l 922 946 l 922 839 l 856 839 l 856 0 l 688 0 q 658 59 675 28 q 618 123 641 90 l 267 637 l 267 106 l 347 106 l 347 0 l 74 0 l 74 106 l 142 106 l 142 839 l 74 839 l 74 946 m 663 1261 l 743 1261 q 687 1129 722 1169 q 595 1089 652 1089 q 567 1091 580 1089 q 543 1096 554 1093 l 481 1114 l 477 1115 q 435 1124 447 1124 q 398 1111 412 1124 q 374 1071 383 1099 l 293 1071 q 348 1197 312 1156 q 439 1238 383 1238 q 465 1235 450 1238 q 500 1226 479 1232 l 564 1208 q 582 1204 572 1205 q 603 1202 591 1202 q 640 1217 625 1202 q 663 1261 655 1232 z "},"Ò":{"ha":1054,"x_min":41,"x_max":1013,"o":"m 473 842 q 369 781 405 842 q 334 603 334 720 q 354 430 334 519 q 411 258 374 340 q 489 142 446 181 q 582 103 532 103 q 686 164 650 103 q 721 343 721 225 q 701 516 721 427 q 644 688 681 606 q 567 803 610 764 q 473 842 524 842 m 528 964 q 875 825 737 964 q 1013 472 1013 686 q 875 119 1013 258 q 528 -20 737 -20 q 179 119 317 -20 q 41 472 41 258 q 179 825 41 686 q 528 964 317 964 m 321 1292 l 515 1292 l 646 1040 l 541 1040 l 321 1292 z "},"Ó":{"ha":1054,"x_min":41,"x_max":1013,"o":"m 473 842 q 369 781 405 842 q 334 603 334 720 q 354 430 334 519 q 411 258 374 340 q 489 142 446 181 q 582 103 532 103 q 686 164 650 103 q 721 343 721 225 q 701 516 721 427 q 644 688 681 606 q 567 803 610 764 q 473 842 524 842 m 528 964 q 875 825 737 964 q 1013 472 1013 686 q 875 119 1013 258 q 528 -20 737 -20 q 179 119 317 -20 q 41 472 41 258 q 179 825 41 686 q 528 964 317 964 m 540 1292 l 734 1292 l 514 1040 l 410 1040 l 540 1292 z "},"Ô":{"ha":1054,"x_min":41,"x_max":1013,"o":"m 473 842 q 369 781 405 842 q 334 603 334 720 q 354 430 334 519 q 411 258 374 340 q 489 142 446 181 q 582 103 532 103 q 686 164 650 103 q 721 343 721 225 q 701 516 721 427 q 644 688 681 606 q 567 803 610 764 q 473 842 524 842 m 528 964 q 875 825 737 964 q 1013 472 1013 686 q 875 119 1013 258 q 528 -20 737 -20 q 179 119 317 -20 q 41 472 41 258 q 179 825 41 686 q 528 964 317 964 m 440 1292 l 614 1292 l 744 1040 l 640 1040 l 528 1175 l 414 1040 l 309 1040 l 440 1292 z "},"Õ":{"ha":1054,"x_min":41,"x_max":1013,"o":"m 473 842 q 369 781 405 842 q 334 603 334 720 q 354 430 334 519 q 411 258 374 340 q 489 142 446 181 q 582 103 532 103 q 686 164 650 103 q 721 343 721 225 q 701 516 721 427 q 644 688 681 606 q 567 803 610 764 q 473 842 524 842 m 528 964 q 875 825 737 964 q 1013 472 1013 686 q 875 119 1013 258 q 528 -20 737 -20 q 179 119 317 -20 q 41 472 41 258 q 179 825 41 686 q 528 964 317 964 m 672 1261 l 753 1261 q 696 1129 731 1169 q 604 1089 661 1089 q 576 1091 589 1089 q 552 1096 564 1093 l 490 1114 l 487 1115 q 444 1124 456 1124 q 407 1111 422 1124 q 383 1071 393 1099 l 302 1071 q 357 1197 321 1156 q 448 1238 393 1238 q 474 1235 459 1238 q 509 1226 489 1232 l 574 1208 q 591 1204 582 1205 q 612 1202 601 1202 q 650 1217 635 1202 q 672 1261 665 1232 z "},"Ö":{"ha":1054,"x_min":41,"x_max":1013,"o":"m 473 842 q 369 781 405 842 q 334 603 334 720 q 354 430 334 519 q 411 258 374 340 q 489 142 446 181 q 582 103 532 103 q 686 164 650 103 q 721 343 721 225 q 701 516 721 427 q 644 688 681 606 q 567 803 610 764 q 473 842 524 842 m 528 964 q 875 825 737 964 q 1013 472 1013 686 q 875 119 1013 258 q 528 -20 737 -20 q 179 119 317 -20 q 41 472 41 258 q 179 825 41 686 q 528 964 317 964 m 660 1263 q 728 1235 700 1263 q 757 1166 757 1206 q 729 1096 757 1124 q 660 1068 701 1068 q 590 1097 619 1068 q 561 1165 561 1126 q 590 1234 561 1204 q 660 1263 620 1263 m 395 1263 q 464 1235 436 1263 q 492 1166 492 1206 q 465 1096 492 1124 q 395 1068 437 1068 q 326 1097 355 1068 q 297 1165 297 1126 q 327 1234 297 1204 q 395 1263 356 1263 z "},"×":{"ha":1157,"x_min":182,"x_max":999,"o":"m 292 823 l 590 525 l 889 823 l 999 714 l 700 414 l 999 115 l 889 5 l 590 304 l 292 5 l 182 115 l 481 414 l 182 714 l 292 823 z "},"Ø":{"ha":1054,"x_min":-17,"x_max":1054,"o":"m 690 564 l 419 239 q 492 139 449 175 q 582 103 536 103 q 686 164 650 103 q 721 343 721 225 q 713 450 721 394 q 690 564 705 505 m 633 708 q 561 807 602 772 q 473 842 519 842 q 369 781 405 842 q 334 603 334 720 q 341 495 334 550 q 364 385 349 440 l 633 708 m 878 1003 l 1054 1003 l 892 808 q 983 653 953 735 q 1013 472 1013 570 q 875 119 1013 258 q 528 -20 737 -20 q 391 -1 456 -20 q 264 54 326 17 l 158 -74 l -17 -74 l 161 139 q 72 289 102 203 q 41 472 41 374 q 179 825 41 686 q 528 964 317 964 q 666 947 604 964 q 787 895 729 930 l 878 1003 z "},"Ù":{"ha":1105,"x_min":74,"x_max":1032,"o":"m 74 946 l 431 946 l 431 277 q 461 177 431 210 q 555 144 492 144 q 644 182 613 144 q 675 289 675 219 l 675 839 l 607 839 l 607 946 l 964 946 l 964 106 l 1032 106 l 1032 0 l 689 0 l 676 92 q 553 8 618 36 q 414 -20 488 -20 q 213 59 284 -20 q 142 282 142 137 l 142 839 l 74 839 l 74 946 m 346 1292 l 541 1292 l 671 1040 l 566 1040 l 346 1292 z "},"Ú":{"ha":1105,"x_min":74,"x_max":1032,"o":"m 74 946 l 431 946 l 431 277 q 461 177 431 210 q 555 144 492 144 q 644 182 613 144 q 675 289 675 219 l 675 839 l 607 839 l 607 946 l 964 946 l 964 106 l 1032 106 l 1032 0 l 689 0 l 676 92 q 553 8 618 36 q 414 -20 488 -20 q 213 59 284 -20 q 142 282 142 137 l 142 839 l 74 839 l 74 946 m 565 1292 l 760 1292 l 539 1040 l 435 1040 l 565 1292 z "},"Û":{"ha":1105,"x_min":74,"x_max":1032,"o":"m 74 946 l 431 946 l 431 277 q 461 177 431 210 q 555 144 492 144 q 644 182 613 144 q 675 289 675 219 l 675 839 l 607 839 l 607 946 l 964 946 l 964 106 l 1032 106 l 1032 0 l 689 0 l 676 92 q 553 8 618 36 q 414 -20 488 -20 q 213 59 284 -20 q 142 282 142 137 l 142 839 l 74 839 l 74 946 m 465 1292 l 639 1292 l 769 1040 l 665 1040 l 553 1175 l 439 1040 l 334 1040 l 465 1292 z "},"Ü":{"ha":1105,"x_min":74,"x_max":1032,"o":"m 74 946 l 431 946 l 431 277 q 461 177 431 210 q 555 144 492 144 q 644 182 613 144 q 675 289 675 219 l 675 839 l 607 839 l 607 946 l 964 946 l 964 106 l 1032 106 l 1032 0 l 689 0 l 676 92 q 553 8 618 36 q 414 -20 488 -20 q 213 59 284 -20 q 142 282 142 137 l 142 839 l 74 839 l 74 946 m 685 1263 q 753 1235 725 1263 q 782 1166 782 1206 q 754 1096 782 1124 q 685 1068 726 1068 q 615 1097 644 1068 q 586 1165 586 1126 q 615 1234 586 1204 q 685 1263 645 1263 m 420 1263 q 489 1235 461 1263 q 517 1166 517 1206 q 490 1096 517 1124 q 420 1068 463 1068 q 351 1097 380 1068 q 322 1165 322 1126 q 352 1234 322 1204 q 420 1263 381 1263 z "},"Ý":{"ha":868,"x_min":-4,"x_max":865,"o":"m -4 946 l 446 946 l 446 839 l 367 839 l 517 574 l 673 839 l 589 839 l 589 946 l 865 946 l 865 839 l 818 839 l 433 184 q 479 203 458 197 q 517 210 500 210 q 568 203 536 210 q 615 197 601 197 q 668 211 648 197 q 705 257 689 224 l 765 241 l 704 4 q 652 -14 680 -8 q 589 -20 624 -20 q 481 -5 553 -20 q 375 9 410 9 q 324 5 351 9 q 256 -12 296 0 l 200 40 l 363 310 l 39 839 l -4 839 l -4 946 m 447 1292 l 642 1292 l 421 1040 l 317 1040 l 447 1292 z "},"Þ":{"ha":971,"x_min":74,"x_max":939,"o":"m 431 690 l 431 359 q 450 287 431 309 q 511 264 469 264 q 604 311 573 264 q 635 452 635 358 q 584 627 635 563 q 443 690 532 690 l 431 690 m 74 946 l 498 946 l 498 846 l 431 846 l 431 794 l 482 794 q 818 711 698 794 q 939 481 939 628 q 834 255 939 343 q 567 167 730 167 q 495 173 528 167 q 431 191 461 178 l 431 100 l 518 100 l 518 0 l 74 0 l 74 106 l 142 106 l 142 839 l 74 839 l 74 946 z "},"ß":{"ha":913,"x_min":40,"x_max":875,"o":"m 458 17 l 458 241 q 526 181 492 202 q 589 160 559 160 q 638 181 618 160 q 659 229 659 201 q 573 338 659 271 q 539 367 551 357 q 465 450 488 410 q 441 536 441 491 q 494 673 441 596 q 547 785 547 751 q 524 842 547 819 q 463 864 500 864 q 393 836 416 864 q 370 751 370 808 l 370 0 l 74 0 l 74 86 l 122 86 l 122 543 l 40 543 l 85 653 l 122 653 q 232 886 142 809 q 484 964 322 964 q 679 912 599 964 q 758 789 758 861 q 699 675 758 735 q 640 591 640 614 q 700 522 640 559 q 739 496 725 506 q 842 387 810 445 q 875 256 875 330 q 794 60 875 140 q 599 -20 713 -20 q 519 -10 555 -20 q 458 17 484 -1 z "},"à":{"ha":814,"x_min":40,"x_max":746,"o":"m 450 361 q 426 365 434 363 q 415 366 418 366 q 326 331 358 366 q 293 236 293 296 q 313 156 293 183 q 371 129 332 129 q 429 153 407 129 q 450 216 450 177 l 450 361 m 218 730 l 292 704 l 278 665 q 363 692 319 683 q 454 701 408 701 q 632 642 567 701 q 697 481 697 583 l 697 86 l 746 86 l 746 0 l 471 0 l 452 65 q 356 2 404 23 q 261 -20 309 -20 q 101 41 163 -20 q 40 196 40 101 q 129 384 40 321 q 393 447 217 447 q 417 447 404 447 q 450 444 429 446 l 450 481 q 427 534 450 514 q 363 554 403 554 q 281 532 320 554 q 210 468 241 510 l 127 500 l 218 730 m 221 1028 l 416 1028 l 546 777 l 441 777 l 221 1028 z "},"á":{"ha":814,"x_min":40,"x_max":746,"o":"m 450 361 q 426 365 434 363 q 415 366 418 366 q 326 331 358 366 q 293 236 293 296 q 313 156 293 183 q 371 129 332 129 q 429 153 407 129 q 450 216 450 177 l 450 361 m 218 730 l 292 704 l 278 665 q 363 692 319 683 q 454 701 408 701 q 632 642 567 701 q 697 481 697 583 l 697 86 l 746 86 l 746 0 l 471 0 l 452 65 q 356 2 404 23 q 261 -20 309 -20 q 101 41 163 -20 q 40 196 40 101 q 129 384 40 321 q 393 447 217 447 q 417 447 404 447 q 450 444 429 446 l 450 481 q 427 534 450 514 q 363 554 403 554 q 281 532 320 554 q 210 468 241 510 l 127 500 l 218 730 m 440 1028 l 635 1028 l 414 777 l 310 777 l 440 1028 z "},"â":{"ha":814,"x_min":40,"x_max":746,"o":"m 450 361 q 426 365 434 363 q 415 366 418 366 q 326 331 358 366 q 293 236 293 296 q 313 156 293 183 q 371 129 332 129 q 429 153 407 129 q 450 216 450 177 l 450 361 m 218 730 l 292 704 l 278 665 q 363 692 319 683 q 454 701 408 701 q 632 642 567 701 q 697 481 697 583 l 697 86 l 746 86 l 746 0 l 471 0 l 452 65 q 356 2 404 23 q 261 -20 309 -20 q 101 41 163 -20 q 40 196 40 101 q 129 384 40 321 q 393 447 217 447 q 417 447 404 447 q 450 444 429 446 l 450 481 q 427 534 450 514 q 363 554 403 554 q 281 532 320 554 q 210 468 241 510 l 127 500 l 218 730 m 340 1028 l 514 1028 l 644 777 l 541 777 l 428 911 l 314 777 l 210 777 l 340 1028 z "},"ã":{"ha":814,"x_min":40,"x_max":746,"o":"m 450 361 q 426 365 434 363 q 415 366 418 366 q 326 331 358 366 q 293 236 293 296 q 313 156 293 183 q 371 129 332 129 q 429 153 407 129 q 450 216 450 177 l 450 361 m 218 730 l 292 704 l 278 665 q 363 692 319 683 q 454 701 408 701 q 632 642 567 701 q 697 481 697 583 l 697 86 l 746 86 l 746 0 l 471 0 l 452 65 q 356 2 404 23 q 261 -20 309 -20 q 101 41 163 -20 q 40 196 40 101 q 129 384 40 321 q 393 447 217 447 q 417 447 404 447 q 450 444 429 446 l 450 481 q 427 534 450 514 q 363 554 403 554 q 281 532 320 554 q 210 468 241 510 l 127 500 l 218 730 m 572 997 l 653 997 q 596 865 631 905 q 505 825 562 825 q 477 827 490 825 q 452 832 464 829 l 391 850 l 387 851 q 345 860 357 860 q 308 847 322 860 q 283 807 293 835 l 203 807 q 257 933 222 892 q 349 974 293 974 q 374 971 359 974 q 410 962 389 968 l 474 945 q 492 940 482 941 q 513 939 501 939 q 550 953 535 939 q 572 997 565 968 z "},"ä":{"ha":814,"x_min":40,"x_max":746,"o":"m 450 361 q 426 365 434 363 q 415 366 418 366 q 326 331 358 366 q 293 236 293 296 q 313 156 293 183 q 371 129 332 129 q 429 153 407 129 q 450 216 450 177 l 450 361 m 218 730 l 292 704 l 278 665 q 363 692 319 683 q 454 701 408 701 q 632 642 567 701 q 697 481 697 583 l 697 86 l 746 86 l 746 0 l 471 0 l 452 65 q 356 2 404 23 q 261 -20 309 -20 q 101 41 163 -20 q 40 196 40 101 q 129 384 40 321 q 393 447 217 447 q 417 447 404 447 q 450 444 429 446 l 450 481 q 427 534 450 514 q 363 554 403 554 q 281 532 320 554 q 210 468 241 510 l 127 500 l 218 730 m 560 999 q 629 971 600 999 q 657 903 657 943 q 629 832 657 861 q 560 804 602 804 q 490 833 519 804 q 461 901 461 862 q 491 970 461 941 q 560 999 520 999 m 296 999 q 364 971 336 999 q 392 903 392 943 q 365 832 392 860 q 296 804 338 804 q 227 833 256 804 q 197 901 197 862 q 227 970 197 941 q 296 999 256 999 z "},"å":{"ha":814,"x_min":40,"x_max":746,"o":"m 450 361 q 426 365 434 363 q 415 366 418 366 q 326 331 358 366 q 293 236 293 296 q 313 156 293 183 q 371 129 332 129 q 429 153 407 129 q 450 216 450 177 l 450 361 m 218 730 l 292 704 l 278 665 q 363 692 319 683 q 454 701 408 701 q 632 642 567 701 q 697 481 697 583 l 697 86 l 746 86 l 746 0 l 471 0 l 452 65 q 356 2 404 23 q 261 -20 309 -20 q 101 41 163 -20 q 40 196 40 101 q 129 384 40 321 q 393 447 217 447 q 417 447 404 447 q 450 444 429 446 l 450 481 q 427 534 450 514 q 363 554 403 554 q 281 532 320 554 q 210 468 241 510 l 127 500 l 218 730 m 460 1007 q 406 984 428 1007 q 383 929 383 962 q 405 874 383 897 q 460 852 427 852 q 515 875 492 852 q 538 929 538 897 q 515 984 538 962 q 460 1007 492 1007 m 460 1114 q 590 1060 536 1114 q 644 930 644 1006 q 591 800 644 853 q 460 746 537 746 q 330 799 382 746 q 277 930 277 852 q 330 1060 277 1007 q 460 1114 383 1114 z "},"æ":{"ha":1132,"x_min":40,"x_max":1105,"o":"m 450 361 q 426 365 434 363 q 415 366 418 366 q 326 331 358 366 q 293 236 293 296 q 313 156 293 183 q 371 129 332 129 q 429 153 407 129 q 450 216 450 177 l 450 361 m 848 443 q 793 553 825 515 q 722 591 760 591 q 672 564 690 591 q 654 486 654 536 q 659 426 654 455 q 673 371 664 396 l 848 443 m 218 730 l 292 704 l 278 665 q 360 692 319 683 q 437 701 401 701 q 529 686 489 701 q 596 643 570 671 q 679 687 635 673 q 770 701 722 701 q 900 674 840 701 q 1006 595 960 648 q 1069 497 1043 552 q 1096 421 1096 443 q 1057 403 1096 413 q 981 378 1018 393 l 711 268 q 786 177 741 208 q 889 146 831 146 q 977 163 936 146 q 1054 216 1019 181 l 1105 163 q 947 25 1034 71 q 754 -20 861 -20 q 610 12 674 -20 q 507 100 545 43 q 380 10 444 40 q 253 -20 317 -20 q 101 42 162 -20 q 40 196 40 104 q 129 384 40 321 q 393 447 217 447 q 417 447 404 447 q 450 444 429 446 l 450 481 q 427 534 450 514 q 363 554 403 554 q 281 532 320 554 q 210 468 241 510 l 127 500 l 218 730 z "},"ç":{"ha":692,"x_min":37,"x_max":665,"o":"m 657 558 l 468 376 q 405 523 442 471 q 325 575 367 575 q 274 547 292 575 q 256 465 256 518 q 309 260 256 340 q 444 180 361 180 q 531 203 490 180 q 602 268 572 227 l 665 221 q 526 42 610 104 q 338 -20 442 -20 q 122 71 206 -20 q 37 301 37 161 q 150 582 37 463 q 410 701 262 701 q 548 665 485 701 q 657 558 611 628 m 296 0 l 374 0 l 374 -57 l 387 -57 q 502 -91 462 -57 q 542 -187 542 -124 q 497 -292 542 -255 q 370 -329 452 -329 q 279 -321 329 -329 q 172 -297 229 -313 l 172 -204 q 274 -227 226 -219 q 356 -235 323 -235 q 400 -223 385 -235 q 414 -186 414 -211 q 395 -154 414 -164 q 334 -143 376 -143 q 311 -143 319 -143 q 296 -144 303 -144 l 296 0 z "},"è":{"ha":739,"x_min":39,"x_max":713,"o":"m 587 378 l 318 268 q 394 177 349 208 q 497 146 439 146 q 586 163 545 146 q 663 216 627 181 l 713 163 q 555 25 641 70 q 363 -20 469 -20 q 130 81 220 -20 q 39 338 39 182 q 138 596 39 492 q 376 701 237 701 q 507 674 448 701 q 612 595 567 648 q 677 497 650 552 q 704 421 704 442 q 665 403 704 413 q 587 378 625 393 m 457 443 q 401 553 434 515 q 330 591 368 591 q 280 564 298 591 q 262 486 262 536 q 268 427 262 456 q 282 371 273 397 l 457 443 m 163 1028 l 357 1028 l 488 777 l 383 777 l 163 1028 z "},"é":{"ha":739,"x_min":39,"x_max":713,"o":"m 587 378 l 318 268 q 394 177 349 208 q 497 146 439 146 q 586 163 545 146 q 663 216 627 181 l 713 163 q 555 25 641 70 q 363 -20 469 -20 q 130 81 220 -20 q 39 338 39 182 q 138 596 39 492 q 376 701 237 701 q 507 674 448 701 q 612 595 567 648 q 677 497 650 552 q 704 421 704 442 q 665 403 704 413 q 587 378 625 393 m 457 443 q 401 553 434 515 q 330 591 368 591 q 280 564 298 591 q 262 486 262 536 q 268 427 262 456 q 282 371 273 397 l 457 443 m 382 1028 l 576 1028 l 356 777 l 252 777 l 382 1028 z "},"ê":{"ha":739,"x_min":39,"x_max":713,"o":"m 587 378 l 318 268 q 394 177 349 208 q 497 146 439 146 q 586 163 545 146 q 663 216 627 181 l 713 163 q 555 25 641 70 q 363 -20 469 -20 q 130 81 220 -20 q 39 338 39 182 q 138 596 39 492 q 376 701 237 701 q 507 674 448 701 q 612 595 567 648 q 677 497 650 552 q 704 421 704 442 q 665 403 704 413 q 587 378 625 393 m 457 443 q 401 553 434 515 q 330 591 368 591 q 280 564 298 591 q 262 486 262 536 q 268 427 262 456 q 282 371 273 397 l 457 443 m 282 1028 l 456 1028 l 586 777 l 482 777 l 370 911 l 256 777 l 151 777 l 282 1028 z "},"ë":{"ha":739,"x_min":39,"x_max":713,"o":"m 587 378 l 318 268 q 394 177 349 208 q 497 146 439 146 q 586 163 545 146 q 663 216 627 181 l 713 163 q 555 25 641 70 q 363 -20 469 -20 q 130 81 220 -20 q 39 338 39 182 q 138 596 39 492 q 376 701 237 701 q 507 674 448 701 q 612 595 567 648 q 677 497 650 552 q 704 421 704 442 q 665 403 704 413 q 587 378 625 393 m 457 443 q 401 553 434 515 q 330 591 368 591 q 280 564 298 591 q 262 486 262 536 q 268 427 262 456 q 282 371 273 397 l 457 443 m 502 999 q 570 971 542 999 q 599 903 599 943 q 571 832 599 861 q 502 804 543 804 q 432 833 461 804 q 403 901 403 862 q 432 970 403 941 q 502 999 462 999 m 237 999 q 306 971 278 999 q 334 903 334 943 q 307 832 334 860 q 237 804 279 804 q 168 833 197 804 q 139 901 139 862 q 169 970 139 941 q 237 999 198 999 z "},"ì":{"ha":489,"x_min":37,"x_max":418,"o":"m 367 701 l 376 701 q 371 629 373 657 q 370 582 370 601 l 370 86 l 418 86 l 418 0 l 74 0 l 74 86 l 122 86 l 122 551 l 74 543 l 74 621 l 367 701 m 37 1028 l 232 1028 l 362 777 l 258 777 l 37 1028 z "},"í":{"ha":489,"x_min":74,"x_max":451,"o":"m 367 701 l 376 701 q 371 629 373 657 q 370 582 370 601 l 370 86 l 418 86 l 418 0 l 74 0 l 74 86 l 122 86 l 122 551 l 74 543 l 74 621 l 367 701 m 256 1028 l 451 1028 l 231 777 l 126 777 l 256 1028 z "},"î":{"ha":489,"x_min":26,"x_max":460,"o":"m 367 701 l 376 701 q 371 629 373 657 q 370 582 370 601 l 370 86 l 418 86 l 418 0 l 74 0 l 74 86 l 122 86 l 122 551 l 74 543 l 74 621 l 367 701 m 157 1028 l 330 1028 l 460 777 l 357 777 l 244 911 l 130 777 l 26 777 l 157 1028 z "},"ï":{"ha":489,"x_min":14,"x_max":473,"o":"m 367 701 l 376 701 q 371 629 373 657 q 370 582 370 601 l 370 86 l 418 86 l 418 0 l 74 0 l 74 86 l 122 86 l 122 551 l 74 543 l 74 621 l 367 701 m 376 999 q 445 971 416 999 q 473 903 473 943 q 446 832 473 861 q 376 804 418 804 q 307 833 336 804 q 277 901 277 862 q 307 970 277 941 q 376 999 336 999 m 112 999 q 180 971 153 999 q 208 903 208 943 q 181 832 208 860 q 112 804 154 804 q 43 833 72 804 q 14 901 14 862 q 43 970 14 941 q 112 999 73 999 z "},"ð":{"ha":810,"x_min":39,"x_max":772,"o":"m 529 241 q 476 469 529 370 q 364 567 424 567 q 303 527 325 567 q 282 414 282 488 q 333 179 282 278 q 444 81 383 81 q 508 121 486 81 q 529 241 529 162 m 328 964 q 401 912 376 930 q 441 882 425 895 l 571 953 l 614 880 l 509 825 q 711 570 650 688 q 772 322 772 453 q 668 78 772 175 q 406 -20 564 -20 q 143 78 248 -20 q 39 322 39 175 q 140 564 39 465 q 378 664 241 664 q 415 661 396 664 q 453 652 433 658 q 423 701 441 673 q 382 758 405 728 l 253 690 l 210 762 l 332 827 q 307 855 321 840 q 265 900 293 871 l 328 964 z "},"ñ":{"ha":929,"x_min":74,"x_max":861,"o":"m 367 701 l 376 701 l 370 582 q 503 672 441 642 q 618 701 565 701 q 762 646 709 701 q 814 492 814 591 l 814 86 l 861 86 l 861 0 l 518 0 l 518 86 l 566 86 l 566 449 q 547 515 566 493 q 490 538 528 538 q 430 523 461 538 q 370 482 398 509 l 370 86 l 418 86 l 418 0 l 74 0 l 74 86 l 122 86 l 122 551 l 74 543 l 74 621 l 367 701 m 618 997 l 699 997 q 642 865 677 905 q 550 825 607 825 q 522 827 535 825 q 498 832 509 829 l 436 850 l 433 851 q 390 860 402 860 q 353 847 368 860 q 329 807 338 835 l 248 807 q 303 933 267 892 q 394 974 338 974 q 420 971 405 974 q 455 962 435 968 l 519 945 q 537 940 528 941 q 558 939 547 939 q 595 953 581 939 q 618 997 610 968 z "},"ò":{"ha":848,"x_min":39,"x_max":810,"o":"m 555 254 q 500 494 555 391 q 380 597 445 597 q 316 555 339 597 q 293 436 293 513 q 347 189 293 293 q 465 85 400 85 q 532 128 509 85 q 555 254 555 171 m 425 701 q 700 599 591 701 q 810 340 810 496 q 701 82 810 184 q 425 -20 592 -20 q 148 82 258 -20 q 39 340 39 184 q 148 599 39 497 q 425 701 258 701 m 218 1028 l 413 1028 l 543 777 l 439 777 l 218 1028 z "},"ó":{"ha":848,"x_min":39,"x_max":810,"o":"m 555 254 q 500 494 555 391 q 380 597 445 597 q 316 555 339 597 q 293 436 293 513 q 347 189 293 293 q 465 85 400 85 q 532 128 509 85 q 555 254 555 171 m 425 701 q 700 599 591 701 q 810 340 810 496 q 701 82 810 184 q 425 -20 592 -20 q 148 82 258 -20 q 39 340 39 184 q 148 599 39 497 q 425 701 258 701 m 437 1028 l 632 1028 l 412 777 l 307 777 l 437 1028 z "},"ô":{"ha":848,"x_min":39,"x_max":810,"o":"m 555 254 q 500 494 555 391 q 380 597 445 597 q 316 555 339 597 q 293 436 293 513 q 347 189 293 293 q 465 85 400 85 q 532 128 509 85 q 555 254 555 171 m 425 701 q 700 599 591 701 q 810 340 810 496 q 701 82 810 184 q 425 -20 592 -20 q 148 82 258 -20 q 39 340 39 184 q 148 599 39 497 q 425 701 258 701 m 338 1028 l 511 1028 l 642 777 l 538 777 l 425 911 l 311 777 l 207 777 l 338 1028 z "},"õ":{"ha":848,"x_min":39,"x_max":810,"o":"m 555 254 q 500 494 555 391 q 380 597 445 597 q 316 555 339 597 q 293 436 293 513 q 347 189 293 293 q 465 85 400 85 q 532 128 509 85 q 555 254 555 171 m 425 701 q 700 599 591 701 q 810 340 810 496 q 701 82 810 184 q 425 -20 592 -20 q 148 82 258 -20 q 39 340 39 184 q 148 599 39 497 q 425 701 258 701 m 570 997 l 650 997 q 594 865 629 905 q 502 825 559 825 q 474 827 487 825 q 450 832 461 829 l 388 850 l 385 851 q 342 860 354 860 q 305 847 319 860 q 281 807 290 835 l 200 807 q 255 933 219 892 q 346 974 290 974 q 372 971 357 974 q 407 962 387 968 l 471 945 q 489 940 479 941 q 510 939 498 939 q 547 953 532 939 q 570 997 562 968 z "},"ö":{"ha":848,"x_min":39,"x_max":810,"o":"m 555 254 q 500 494 555 391 q 380 597 445 597 q 316 555 339 597 q 293 436 293 513 q 347 189 293 293 q 465 85 400 85 q 532 128 509 85 q 555 254 555 171 m 425 701 q 700 599 591 701 q 810 340 810 496 q 701 82 810 184 q 425 -20 592 -20 q 148 82 258 -20 q 39 340 39 184 q 148 599 39 497 q 425 701 258 701 m 557 999 q 626 971 597 999 q 654 903 654 943 q 627 832 654 861 q 557 804 599 804 q 488 833 517 804 q 458 901 458 862 q 488 970 458 941 q 557 999 517 999 m 293 999 q 361 971 334 999 q 389 903 389 943 q 362 832 389 860 q 293 804 335 804 q 224 833 253 804 q 195 901 195 862 q 224 970 195 941 q 293 999 254 999 z "},"÷":{"ha":1157,"x_min":172,"x_max":985,"o":"m 579 252 q 658 219 625 252 q 690 139 690 186 q 658 60 690 93 q 579 28 626 28 q 499 60 532 28 q 467 139 467 93 q 500 218 467 185 q 579 252 533 252 m 172 493 l 985 493 l 985 336 l 172 336 l 172 493 m 579 802 q 657 768 625 802 q 690 689 690 735 q 657 610 690 643 q 578 578 625 578 q 499 610 531 578 q 467 689 467 643 q 500 768 467 735 q 579 802 533 802 z "},"ø":{"ha":848,"x_min":-1,"x_max":829,"o":"m 543 399 l 354 168 q 407 107 378 129 q 464 85 436 85 q 536 130 510 85 q 562 254 562 175 q 557 332 562 296 q 543 399 553 367 m 497 511 q 439 576 467 555 q 382 597 410 597 q 311 553 336 597 q 286 429 286 509 q 291 361 286 398 q 304 281 295 323 l 497 511 m 688 743 l 829 743 l 707 595 q 784 479 759 542 q 810 340 810 416 q 701 82 810 184 q 425 -20 592 -20 q 325 -9 373 -20 q 233 24 277 2 l 142 -86 l -1 -86 l 143 87 q 66 199 93 134 q 39 340 39 264 q 149 599 39 496 q 425 701 258 701 q 523 690 476 701 q 616 656 570 679 l 688 743 z "},"ù":{"ha":900,"x_min":68,"x_max":829,"o":"m 354 701 l 364 701 l 364 233 q 381 167 364 189 q 433 144 399 144 q 485 157 458 144 q 533 191 511 169 l 533 551 l 486 543 l 486 621 l 772 701 l 781 701 l 781 86 l 829 86 l 829 0 l 550 0 l 521 83 q 413 7 467 33 q 310 -20 359 -20 q 167 36 218 -20 q 115 191 115 91 l 115 551 l 68 543 l 68 621 l 354 701 m 257 1028 l 452 1028 l 582 777 l 477 777 l 257 1028 z "},"ú":{"ha":900,"x_min":68,"x_max":829,"o":"m 354 701 l 364 701 l 364 233 q 381 167 364 189 q 433 144 399 144 q 485 157 458 144 q 533 191 511 169 l 533 551 l 486 543 l 486 621 l 772 701 l 781 701 l 781 86 l 829 86 l 829 0 l 550 0 l 521 83 q 413 7 467 33 q 310 -20 359 -20 q 167 36 218 -20 q 115 191 115 91 l 115 551 l 68 543 l 68 621 l 354 701 m 476 1028 l 671 1028 l 450 777 l 346 777 l 476 1028 z "},"û":{"ha":900,"x_min":68,"x_max":829,"o":"m 354 701 l 364 701 l 364 233 q 381 167 364 189 q 433 144 399 144 q 485 157 458 144 q 533 191 511 169 l 533 551 l 486 543 l 486 621 l 772 701 l 781 701 l 781 86 l 829 86 l 829 0 l 550 0 l 521 83 q 413 7 467 33 q 310 -20 359 -20 q 167 36 218 -20 q 115 191 115 91 l 115 551 l 68 543 l 68 621 l 354 701 m 376 1028 l 550 1028 l 680 777 l 576 777 l 464 911 l 350 777 l 245 777 l 376 1028 z "},"ü":{"ha":900,"x_min":68,"x_max":829,"o":"m 354 701 l 364 701 l 364 233 q 381 167 364 189 q 433 144 399 144 q 485 157 458 144 q 533 191 511 169 l 533 551 l 486 543 l 486 621 l 772 701 l 781 701 l 781 86 l 829 86 l 829 0 l 550 0 l 521 83 q 413 7 467 33 q 310 -20 359 -20 q 167 36 218 -20 q 115 191 115 91 l 115 551 l 68 543 l 68 621 l 354 701 m 596 999 q 665 971 636 999 q 693 903 693 943 q 665 832 693 861 q 596 804 637 804 q 526 833 555 804 q 497 901 497 862 q 527 970 497 941 q 596 999 556 999 m 332 999 q 400 971 372 999 q 428 903 428 943 q 401 832 428 860 q 332 804 374 804 q 262 833 292 804 q 233 901 233 862 q 263 970 233 941 q 332 999 292 999 z "},"ý":{"ha":753,"x_min":-8,"x_max":754,"o":"m 570 514 q 553 507 561 509 q 539 505 546 505 q 484 517 517 505 q 436 529 452 529 q 392 509 414 529 q 353 450 371 489 l 444 248 l 570 514 m 256 701 q 281 621 264 665 q 328 510 298 576 q 426 656 387 621 q 517 692 465 692 q 590 679 542 692 q 661 667 638 667 q 694 672 678 667 q 725 686 711 677 l 754 656 q 725 607 742 638 q 685 525 709 576 l 424 -31 q 308 -203 368 -149 q 175 -257 249 -257 q 118 -251 146 -257 q 69 -235 90 -245 l 109 -52 q 171 -78 144 -69 q 220 -86 198 -86 q 278 -71 253 -86 q 315 -26 303 -55 l 332 12 l 66 509 l 24 490 l -8 553 l 256 701 m 389 1028 l 583 1028 l 363 777 l 258 777 l 389 1028 z "},"þ":{"ha":861,"x_min":71,"x_max":823,"o":"m 367 228 q 390 113 367 151 q 460 75 413 75 q 542 131 514 75 q 570 297 570 187 q 528 492 570 425 q 407 559 486 559 q 374 557 396 559 q 367 557 369 557 l 367 228 m 418 958 l 418 871 l 367 854 l 367 631 q 463 684 416 666 q 555 701 510 701 q 746 607 668 701 q 823 370 823 513 q 728 93 823 206 q 496 -20 633 -20 q 422 -10 455 -20 q 367 20 390 0 l 367 -144 l 453 -144 l 453 -232 l 71 -232 l 71 -144 l 119 -144 l 119 775 l 71 760 l 71 847 l 418 958 z "},"ÿ":{"ha":753,"x_min":-8,"x_max":754,"o":"m 570 514 q 553 507 561 509 q 539 505 546 505 q 484 517 517 505 q 436 529 452 529 q 392 509 414 529 q 353 450 371 489 l 444 248 l 570 514 m 256 701 q 281 621 264 665 q 328 510 298 576 q 426 656 387 621 q 517 692 465 692 q 590 679 542 692 q 661 667 638 667 q 694 672 678 667 q 725 686 711 677 l 754 656 q 725 607 742 638 q 685 525 709 576 l 424 -31 q 308 -203 368 -149 q 175 -257 249 -257 q 118 -251 146 -257 q 69 -235 90 -245 l 109 -52 q 171 -78 144 -69 q 220 -86 198 -86 q 278 -71 253 -86 q 315 -26 303 -55 l 332 12 l 66 509 l 24 490 l -8 553 l 256 701 m 509 999 q 577 971 549 999 q 606 903 606 943 q 578 832 606 861 q 509 804 550 804 q 439 833 468 804 q 410 901 410 862 q 439 970 410 941 q 509 999 469 999 m 244 999 q 313 971 285 999 q 340 903 340 943 q 313 832 340 860 q 244 804 286 804 q 175 833 204 804 q 146 901 146 862 q 175 970 146 941 q 244 999 205 999 z "},"ı":{"ha":489,"x_min":74,"x_max":418,"o":"m 367 701 l 376 701 q 371 629 373 657 q 370 582 370 601 l 370 86 l 418 86 l 418 0 l 74 0 l 74 86 l 122 86 l 122 551 l 74 543 l 74 621 l 367 701 z "},"Œ":{"ha":1479,"x_min":41,"x_max":1357,"o":"m 726 637 q 682 793 726 740 q 551 847 637 847 q 401 763 452 847 q 350 514 350 680 q 409 207 350 316 q 574 97 467 97 q 691 149 656 97 q 726 334 726 201 l 726 637 m 879 946 l 1357 946 l 1357 749 l 1263 749 l 1260 787 q 1187 819 1228 808 q 1095 829 1146 829 l 1015 829 l 1015 623 l 1263 623 l 1263 692 l 1357 692 l 1357 437 l 1263 437 l 1263 497 l 1015 497 l 1015 119 l 1074 119 q 1184 136 1137 119 q 1263 186 1231 153 l 1263 248 l 1357 248 l 1357 0 l 879 0 q 702 -10 813 0 q 546 -20 590 -20 q 181 117 321 -20 q 41 472 41 254 q 181 827 41 691 q 546 964 321 964 q 702 955 590 964 q 879 946 813 946 z "},"œ":{"ha":1235,"x_min":39,"x_max":1208,"o":"m 951 443 q 896 553 928 515 q 825 591 863 591 q 775 564 793 591 q 757 486 757 536 q 762 427 757 456 q 777 371 767 397 l 951 443 m 555 254 q 500 494 555 391 q 380 597 445 597 q 316 555 339 597 q 293 436 293 513 q 347 189 293 293 q 465 85 400 85 q 532 128 509 85 q 555 254 555 171 m 668 625 q 771 682 720 663 q 872 701 822 701 q 1003 674 943 701 q 1108 595 1063 648 q 1172 497 1146 552 q 1198 421 1198 443 q 1159 403 1198 413 q 1083 378 1120 393 l 814 268 q 889 177 844 208 q 991 146 934 146 q 1080 163 1039 146 q 1157 216 1122 181 l 1208 163 q 1050 25 1137 71 q 857 -20 964 -20 q 748 -2 799 -20 q 657 49 696 16 q 546 -3 602 14 q 425 -20 490 -20 q 148 82 258 -20 q 39 340 39 184 q 148 599 39 497 q 425 701 258 701 q 552 682 492 701 q 668 625 613 663 z "},"Ÿ":{"ha":868,"x_min":-4,"x_max":865,"o":"m -4 946 l 446 946 l 446 839 l 367 839 l 517 574 l 673 839 l 589 839 l 589 946 l 865 946 l 865 839 l 818 839 l 433 184 q 479 203 458 197 q 517 210 500 210 q 568 203 536 210 q 615 197 601 197 q 668 211 648 197 q 705 257 689 224 l 765 241 l 704 4 q 652 -14 680 -8 q 589 -20 624 -20 q 481 -5 553 -20 q 375 9 410 9 q 324 5 351 9 q 256 -12 296 0 l 200 40 l 363 310 l 39 839 l -4 839 l -4 946 m 567 1263 q 635 1235 607 1263 q 664 1166 664 1206 q 636 1096 664 1124 q 567 1068 608 1068 q 497 1097 526 1068 q 468 1165 468 1126 q 497 1234 468 1204 q 567 1263 527 1263 m 302 1263 q 371 1235 343 1263 q 399 1166 399 1206 q 372 1096 399 1124 q 302 1068 345 1068 q 233 1097 262 1068 q 204 1165 204 1126 q 234 1234 204 1204 q 302 1263 263 1263 z "},"ˆ":{"ha":694,"x_min":129,"x_max":564,"o":"m 260 1028 l 433 1028 l 564 777 l 460 777 l 347 911 l 233 777 l 129 777 l 260 1028 z "},"˜":{"ha":694,"x_min":122,"x_max":572,"o":"m 492 997 l 572 997 q 516 865 551 905 q 424 825 481 825 q 396 827 409 825 q 372 832 383 829 l 310 850 l 307 851 q 264 860 276 860 q 227 847 241 860 q 203 807 212 835 l 122 807 q 177 933 141 892 q 268 974 212 974 q 294 971 279 974 q 329 962 309 968 l 393 945 q 411 940 401 941 q 432 939 420 939 q 469 953 454 939 q 492 997 484 968 z "}," ":{"ha":679,"x_min":0,"x_max":0,"o":""}," ":{"ha":1358,"x_min":0,"x_max":0,"o":""}," ":{"ha":679,"x_min":0,"x_max":0,"o":""}," ":{"ha":1358,"x_min":0,"x_max":0,"o":""}," ":{"ha":452,"x_min":0,"x_max":0,"o":""}," ":{"ha":339,"x_min":0,"x_max":0,"o":""}," ":{"ha":226,"x_min":0,"x_max":0,"o":""}," ":{"ha":226,"x_min":0,"x_max":0,"o":""}," ":{"ha":170,"x_min":0,"x_max":0,"o":""}," ":{"ha":271,"x_min":0,"x_max":0,"o":""}," ":{"ha":75,"x_min":0,"x_max":0,"o":""},"‐":{"ha":437,"x_min":39,"x_max":399,"o":"m 39 443 l 399 443 l 399 252 l 39 252 l 39 443 z "},"‑":{"ha":437,"x_min":39,"x_max":399,"o":"m 39 443 l 399 443 l 399 252 l 39 252 l 39 443 z "},"‒":{"ha":437,"x_min":39,"x_max":399,"o":"m 39 443 l 399 443 l 399 252 l 39 252 l 39 443 z "},"–":{"ha":694,"x_min":0,"x_max":694,"o":"m 0 431 l 694 431 l 694 264 l 0 264 l 0 431 z "},"—":{"ha":1389,"x_min":0,"x_max":1389,"o":"m 0 431 l 1389 431 l 1389 264 l 0 264 l 0 431 z "},"‘":{"ha":367,"x_min":83,"x_max":283,"o":"m 232 964 l 256 911 q 216 884 231 899 q 195 856 200 870 q 258 826 233 853 q 283 761 283 799 q 256 693 283 721 q 187 665 229 665 q 112 696 140 665 q 83 781 83 728 q 123 892 83 844 q 232 964 162 941 z "},"’":{"ha":367,"x_min":83,"x_max":283,"o":"m 135 665 l 111 718 q 151 744 135 729 q 172 774 166 758 q 110 802 136 774 q 83 868 83 830 q 111 937 83 910 q 183 964 139 964 q 256 931 229 964 q 283 844 283 899 q 244 736 283 785 q 135 665 204 688 z "},"‚":{"ha":367,"x_min":83,"x_max":283,"o":"m 135 -113 l 111 -60 q 150 -33 134 -47 q 172 -4 166 -19 q 109 24 134 -3 q 83 90 83 52 q 111 159 83 132 q 183 186 139 186 q 256 154 229 186 q 283 66 283 121 q 244 -41 283 7 q 135 -113 204 -90 z "},"“":{"ha":650,"x_min":83,"x_max":566,"o":"m 515 964 l 539 911 q 498 884 514 899 q 478 856 483 870 q 541 826 516 853 q 566 761 566 800 q 538 693 566 720 q 471 665 511 665 q 395 696 423 665 q 367 781 367 728 q 406 892 367 844 q 515 964 445 941 m 232 964 l 256 911 q 216 884 231 899 q 195 856 200 870 q 258 826 233 853 q 283 761 283 799 q 256 693 283 721 q 187 665 229 665 q 112 696 140 665 q 83 781 83 728 q 123 892 83 844 q 232 964 162 941 z "},"”":{"ha":650,"x_min":83,"x_max":566,"o":"m 416 664 l 395 718 q 434 745 420 732 q 454 774 448 758 q 392 802 418 774 q 367 868 367 830 q 394 937 367 910 q 467 964 422 964 q 538 931 511 964 q 566 844 566 899 q 526 736 566 785 q 416 664 486 687 m 135 664 l 111 718 q 151 744 135 729 q 172 774 166 758 q 110 802 136 774 q 83 868 83 830 q 111 937 83 910 q 183 964 139 964 q 256 931 229 964 q 283 844 283 899 q 243 736 283 785 q 135 664 203 687 z "},"„":{"ha":650,"x_min":83,"x_max":566,"o":"m 416 -113 l 395 -60 q 434 -34 418 -47 q 454 -4 449 -20 q 392 24 416 -3 q 367 90 367 52 q 394 159 367 132 q 467 186 422 186 q 538 154 511 186 q 566 66 566 121 q 526 -41 566 7 q 416 -113 486 -90 m 135 -113 l 111 -60 q 150 -33 134 -47 q 172 -4 166 -19 q 109 24 134 -3 q 83 90 83 52 q 111 159 83 132 q 183 186 139 186 q 256 154 229 186 q 283 66 283 121 q 244 -41 283 7 q 135 -113 204 -90 z "},"•":{"ha":819,"x_min":208,"x_max":610,"o":"m 208 517 q 267 659 208 600 q 410 717 326 717 q 551 658 492 717 q 610 517 610 600 q 550 375 610 434 q 408 315 491 315 q 267 374 325 315 q 208 517 208 433 z "},"…":{"ha":1389,"x_min":130,"x_max":1261,"o":"m 232 186 q 305 156 275 186 q 335 83 335 126 q 304 11 335 41 q 232 -20 274 -20 q 160 11 191 -20 q 130 83 130 42 q 160 155 130 125 q 232 186 191 186 m 694 186 q 767 156 737 186 q 798 83 798 126 q 767 11 798 41 q 694 -20 736 -20 q 623 11 654 -20 q 592 83 592 42 q 623 155 592 125 q 694 186 653 186 m 1158 186 q 1231 156 1201 186 q 1261 83 1261 126 q 1231 11 1261 41 q 1158 -20 1200 -20 q 1087 11 1118 -20 q 1056 83 1056 42 q 1086 155 1056 125 q 1158 186 1117 186 z "}," ":{"ha":271,"x_min":0,"x_max":0,"o":""},"‹":{"ha":364,"x_min":39,"x_max":325,"o":"m 196 624 l 325 624 l 248 350 l 317 78 l 187 78 l 39 350 l 196 624 z "},"›":{"ha":364,"x_min":39,"x_max":325,"o":"m 47 624 l 175 624 l 325 350 l 167 78 l 39 78 l 115 350 l 47 624 z "}," ":{"ha":339,"x_min":0,"x_max":0,"o":""},"€":{"ha":733,"x_min":0,"x_max":721,"o":"m 721 211 q 583 41 669 104 q 400 -22 496 -22 q 183 66 270 -22 q 77 302 96 154 l 0 302 l 14 375 l 71 375 q 72 418 71 398 q 77 457 73 438 l 0 457 l 14 529 l 90 529 q 222 760 130 674 q 437 846 314 846 q 529 825 489 846 q 604 761 570 805 l 640 793 l 693 729 l 482 557 l 433 615 q 452 633 445 620 q 458 665 458 647 q 436 714 458 694 q 382 734 413 734 q 308 683 334 734 q 282 533 282 631 l 282 529 l 539 529 l 525 457 l 286 456 q 292 418 288 437 q 302 375 295 399 l 511 375 l 497 302 l 326 302 q 401 202 356 237 q 500 167 446 167 q 583 188 547 167 q 660 261 618 208 l 721 211 z "},"™":{"ha":1141,"x_min":147,"x_max":965,"o":"m 505 990 l 656 990 l 742 749 l 825 990 l 965 990 l 965 972 l 950 968 q 932 958 937 965 q 926 935 926 950 l 926 675 q 932 652 926 660 q 950 642 937 645 l 965 637 l 965 615 l 789 615 l 789 637 l 809 642 q 827 652 821 644 q 833 675 833 661 l 833 916 l 733 614 l 704 614 l 591 924 l 591 675 q 597 652 591 660 q 616 642 604 644 l 639 637 l 639 615 l 505 615 l 505 637 l 529 642 q 547 652 541 644 q 553 675 553 661 l 553 929 q 547 952 553 943 q 530 962 541 960 l 505 966 l 505 990 m 155 990 l 465 990 l 473 856 l 449 856 q 423 935 444 909 q 361 960 402 960 l 361 675 q 367 652 361 660 q 382 642 372 644 l 403 637 l 403 615 l 218 615 l 218 637 l 239 642 q 254 652 249 644 q 260 675 260 661 l 260 960 l 257 960 q 196 934 218 960 q 171 856 175 908 l 147 856 l 155 990 z "}}}
